<svg xmlns="http://www.w3.org/2000/svg" width="40" height="40" viewBox="0 0 40 40" fill=" #00d4ff">
                                        <g>
                                            <path d="M37.7214 28.0303C37.3524 27.8324 36.9461 27.714 36.5286 27.6827C36.111 27.6513 35.6916 27.7078 35.2972 27.8485L27.2426 30.7394C27.4012 30.2556 27.4332 29.7392 27.3356 29.2395C27.238 28.7398 27.014 28.2734 26.6851 27.8848C26.407 27.5568 26.0606 27.2935 25.6701 27.1134C25.2796 26.9334 24.8545 26.8409 24.4245 26.8424H20.0123C18.9881 26.8424 17.9942 26.4848 17.1517 25.8121C15.2305 24.2788 11.3275 22.2545 6.21233 25.1273V24.1091C6.21233 23.7715 6.07824 23.4478 5.83956 23.2091C5.60088 22.9705 5.27715 22.8364 4.9396 22.8364H1.95779C1.62024 22.8364 1.29651 22.9705 1.05783 23.2091C0.819149 23.4478 0.685059 23.7715 0.685059 24.1091V36.8606C0.685059 37.5636 1.25476 38.1333 1.95779 38.1333H4.9396C5.27715 38.1333 5.60088 37.9992 5.83956 37.7606C6.07824 37.5219 6.21233 37.1982 6.21233 36.8606V36.2424C7.18203 36.2303 9.6487 36.3697 13.182 37.7576C15.4487 38.6424 17.8063 39.0909 20.1578 39.0909C21.4608 39.0909 22.7638 38.9515 24.0426 38.6727C27.5699 37.903 32.8366 36.3394 37.8972 33.2424C38.2333 33.033 38.5246 32.7592 38.7545 32.4368C38.9843 32.1143 39.1482 31.7496 39.2366 31.3636C39.5457 30.0485 38.9275 28.6788 37.7214 28.0303ZM5.15173 36.8545C5.15173 36.9697 5.05476 37.0667 4.9396 37.0667H1.95779C1.84263 37.0667 1.74566 36.9697 1.74566 36.8545V24.103C1.74566 23.9879 1.84263 23.8909 1.95779 23.8909H4.9396C5.05476 23.8909 5.15173 23.9879 5.15173 24.103V36.8545ZM38.2063 31.1212C38.0851 31.6303 37.776 32.0727 37.3457 32.3333C32.4063 35.3576 27.2608 36.8848 23.8184 37.6364C20.4426 38.3697 16.8972 38.0727 13.5699 36.7697C10.0245 35.3818 7.5093 35.1818 6.3396 35.1818H6.20627V26.3394C11.0487 23.3333 14.7154 25.2242 16.4851 26.6364C17.5032 27.4545 18.7578 27.903 20.0063 27.903H24.4184C24.976 27.903 25.5093 28.1455 25.8729 28.5758C26.2426 29.0061 26.3941 29.5636 26.2972 30.1333C26.2123 30.6667 25.8729 31.1212 25.4063 31.4061C25.376 31.4182 25.3396 31.4364 25.3154 31.4606C25.0123 31.6242 24.6608 31.7152 24.2911 31.7152H18.0911C17.8002 31.7152 17.5578 31.9515 17.5578 32.2485C17.5578 32.5455 17.7942 32.7818 18.0911 32.7818H24.2972C24.8608 32.7818 25.3941 32.6364 25.8548 32.3818L35.6608 28.8667C36.1699 28.6849 36.7457 28.7212 37.2426 28.9939C38.0063 29.3879 38.4063 30.2727 38.2063 31.1212Z"></path>
                                            <path d="M12.958 14.9758C13.364 15.3576 13.7822 15.7576 13.8913 16.103C14.0125 16.4788 13.9034 17.0606 13.8004 17.6303C13.6428 18.5091 13.4731 19.4182 13.9822 20.1091C14.4913 20.8061 15.4125 20.9334 16.3034 21.0546C16.8671 21.1334 17.4549 21.2121 17.764 21.4364C18.0671 21.6546 18.3216 22.1879 18.564 22.697C18.9337 23.4788 19.358 24.3576 20.1883 24.6303C20.358 24.6849 20.5277 24.7091 20.6913 24.7091C21.3216 24.7091 21.958 24.3697 22.5701 24.0364C23.0852 23.7576 23.6186 23.4727 24.0246 23.4727C24.4307 23.4727 24.964 23.7576 25.4792 24.0364C26.261 24.4546 27.061 24.8909 27.8671 24.6303C28.7034 24.3576 29.1216 23.4788 29.4913 22.697C29.7337 22.1879 29.9883 21.6606 30.2913 21.4364C30.6004 21.2121 31.1883 21.1334 31.7519 21.0546C32.6428 20.9334 33.564 20.8121 34.0731 20.1152C34.5761 19.4243 34.4125 18.5152 34.2549 17.6364C34.1519 17.0667 34.0489 16.4849 34.164 16.1091C34.2731 15.7637 34.6974 15.3697 35.0974 14.9818C35.7277 14.3818 36.4428 13.703 36.4428 12.8121C36.4428 11.9212 35.7277 11.2424 35.0974 10.6424C34.6913 10.2606 34.2731 9.86063 34.164 9.51517C34.0428 9.13941 34.1519 8.5576 34.2549 7.9879C34.4125 7.10911 34.5822 6.20002 34.0731 5.50911C33.564 4.81214 32.6428 4.68487 31.7519 4.56366C31.1883 4.48487 30.6004 4.40608 30.2913 4.18184C29.9883 3.96366 29.7337 3.43032 29.4913 2.92123C29.1216 2.13941 28.6974 1.26063 27.8671 0.987898C27.0671 0.727292 26.261 1.16366 25.4792 1.58184C24.964 1.86063 24.4307 2.14547 24.0246 2.14547C23.6186 2.14547 23.0852 1.86063 22.5701 1.58184C21.7883 1.16366 20.9822 0.727292 20.1822 0.987898C19.3458 1.26063 18.9277 2.13941 18.558 2.92123C18.3155 3.43032 18.061 3.9576 17.758 4.18184C17.4489 4.40608 16.861 4.48487 16.2974 4.56366C15.4064 4.68487 14.4852 4.80608 13.9761 5.50911C13.4731 6.20002 13.6367 7.10911 13.7943 7.9879C13.8974 8.5576 14.0004 9.13941 13.8852 9.51517C13.7701 9.86063 13.3519 10.2546 12.9519 10.6424C12.3216 11.2424 11.6064 11.9212 11.6064 12.8121C11.6064 13.697 12.3277 14.3758 12.958 14.9758ZM13.6852 11.4061C14.1883 10.9334 14.7034 10.4424 14.8974 9.83638C15.1034 9.21214 14.9701 8.49093 14.8428 7.79396C14.7216 7.13335 14.6004 6.4485 14.8367 6.12729C15.0792 5.79396 15.7701 5.70305 16.4428 5.61214C17.1398 5.52123 17.861 5.42426 18.3883 5.03638C18.9095 4.66063 19.2186 4.00608 19.5216 3.37578C19.8125 2.76366 20.1216 2.12729 20.5216 1.99396C20.5761 1.97578 20.6368 1.96972 20.6974 1.96972C21.0671 1.96972 21.5822 2.2485 22.0792 2.51517C22.7095 2.85456 23.364 3.20608 24.0367 3.20608C24.7095 3.20608 25.364 2.85456 25.9943 2.51517C26.5761 2.20002 27.1761 1.87881 27.5519 2.00002C27.9519 2.12729 28.2549 2.76366 28.5519 3.38184C28.8549 4.01214 29.164 4.66063 29.6852 5.04244C30.2125 5.42426 30.9337 5.52123 31.6307 5.6182C32.3034 5.70911 32.9943 5.80002 33.2367 6.13335C33.4731 6.46063 33.3519 7.13941 33.2307 7.80002C33.1034 8.49699 32.9761 9.2182 33.1761 9.84244C33.3701 10.4424 33.8913 10.9334 34.3883 11.4121C34.8852 11.8849 35.4064 12.3758 35.4064 12.8121C35.4064 13.2485 34.8913 13.7394 34.3883 14.2121C33.8852 14.6849 33.3701 15.1758 33.1761 15.7818C32.9701 16.4061 33.1034 17.1273 33.2307 17.8243C33.3519 18.4849 33.4731 19.1637 33.2367 19.4909C32.9943 19.8243 32.3034 19.9152 31.6307 20.0061C30.9337 20.097 30.2125 20.194 29.6852 20.5818C29.164 20.9576 28.8549 21.6121 28.5519 22.2424C28.261 22.8606 27.9519 23.4909 27.5519 23.6243C27.1822 23.7455 26.5761 23.4182 25.9943 23.1091C25.364 22.7697 24.7095 22.4182 24.0367 22.4182C23.364 22.4182 22.7095 22.7697 22.0792 23.1091C21.4974 23.4243 20.8974 23.7455 20.5216 23.6243C20.1216 23.497 19.8186 22.8606 19.5216 22.2424C19.2186 21.6121 18.9095 20.9637 18.3883 20.5818C17.861 20.2 17.1398 20.103 16.4428 20.0061C15.7701 19.9152 15.0792 19.8243 14.8367 19.4909C14.6004 19.1637 14.7216 18.4849 14.8428 17.8243C14.9701 17.1273 15.0974 16.4061 14.8974 15.7818C14.7034 15.1818 14.1822 14.6909 13.6852 14.2121C13.1883 13.7394 12.6671 13.2485 12.6671 12.8121C12.6671 12.3697 13.1883 11.8788 13.6852 11.4061Z"></path>
                                            <path d="M24.0303 20.2182C28.1151 20.2182 31.4424 16.891 31.4424 12.8061C31.4424 8.72125 28.1212 5.39398 24.0303 5.39398C19.9394 5.39398 16.6182 8.72125 16.6182 12.8061C16.6182 16.891 19.9454 20.2182 24.0303 20.2182ZM24.0303 6.45459C27.5333 6.45459 30.3818 9.30307 30.3818 12.8061C30.3818 16.3091 27.5333 19.1576 24.0303 19.1576C20.5273 19.1576 17.6788 16.3091 17.6788 12.8061C17.6788 9.30307 20.5273 6.45459 24.0303 6.45459Z"></path>
                                            <path d="M21.5517 16.1031C21.879 16.4304 22.3214 16.6122 22.782 16.6122C23.2426 16.6122 23.685 16.4304 24.0123 16.1031L28.1396 11.9758C28.4669 11.6485 28.6487 11.2061 28.6487 10.7455C28.6487 10.2849 28.4669 9.84247 28.1396 9.5152C27.8119 9.18914 27.3685 9.0061 26.9063 9.0061C26.444 9.0061 26.0006 9.18914 25.6729 9.5152L22.782 12.4061L22.382 12.0061C22.0544 11.6801 21.6109 11.497 21.1487 11.497C20.6864 11.497 20.243 11.6801 19.9153 12.0061C19.5893 12.3338 19.4062 12.7772 19.4062 13.2394C19.4062 13.7017 19.5893 14.1451 19.9153 14.4728L21.5517 16.1031ZM20.6729 12.7576C20.8063 12.6243 20.982 12.5576 21.1578 12.5576C21.3335 12.5576 21.5093 12.6243 21.6426 12.7576L22.4184 13.5273C22.6244 13.7334 22.9638 13.7334 23.1699 13.5273L26.4366 10.2607C26.7032 9.99399 27.1335 9.99399 27.4002 10.2607C27.5275 10.3879 27.6002 10.5576 27.6002 10.7394C27.6002 10.9213 27.5275 11.091 27.4002 11.2243L23.2729 15.3516C23.0184 15.6061 22.5638 15.6061 22.3093 15.3516L20.679 13.7213C20.4063 13.4546 20.4063 13.0243 20.6729 12.7576Z"></path>
                                        </g>
                                    </svg>