<svg xmlns="http://www.w3.org/2000/svg" width="40" height="40" viewBox="0 0 40 40" fill=" #00d4ff">
    <path d="M34.5607 4.46125H30.7556V2.62649C30.7556 2.30227 30.493 2.03961 30.1688 2.03961C29.8445 2.03961 29.5819 2.30227 29.5819 2.62649V4.46117H20.5867V2.62649C20.5867 2.30227 20.3241 2.03961 19.9999 2.03961C19.6756 2.03961 19.413 2.30227 19.413 2.62649V4.46117H10.4178V2.62649C10.4178 2.30227 10.1552 2.03961 9.83096 2.03961C9.50674 2.03961 9.24408 2.30227 9.24408 2.62649V4.46117H5.439C2.78916 4.46117 0.633301 6.63555 0.633301 9.30821V33.1134C0.633301 35.7859 2.78916 37.9604 5.439 37.9604H34.5607C37.2108 37.9604 39.3664 35.786 39.3664 33.1134V9.30821C39.3664 6.63563 37.2108 4.46125 34.5607 4.46125ZM34.5607 36.7866H5.439C3.43635 36.7866 1.80697 35.1388 1.80697 33.1134V15.2034H38.1927V33.1134C38.1927 35.1388 36.5635 36.7866 34.5607 36.7866ZM38.1927 14.0297H1.80705V9.30821C1.80705 7.28281 3.43643 5.63492 5.43908 5.63492H9.24416V8.31821H7.82799C7.50377 8.31821 7.24111 8.58086 7.24111 8.90508C7.24111 9.2293 7.50377 9.49196 7.82799 9.49196H11.834C12.1582 9.49196 12.4209 9.2293 12.4209 8.90508C12.4209 8.58086 12.1582 8.31821 11.834 8.31821H10.4178V5.635H19.413V8.31828H17.9968C17.6726 8.31828 17.4099 8.58094 17.4099 8.90516C17.4099 9.22938 17.6726 9.49203 17.9968 9.49203H22.0028C22.3271 9.49203 22.5897 9.22938 22.5897 8.90516C22.5897 8.58094 22.3271 8.31828 22.0028 8.31828H20.5867V5.635H29.5819V8.31828H28.1657C27.8415 8.31828 27.5788 8.58094 27.5788 8.90516C27.5788 9.22938 27.8415 9.49203 28.1657 9.49203H32.1717C32.496 9.49203 32.7586 9.22938 32.7586 8.90516C32.7586 8.58094 32.496 8.31828 32.1717 8.31828H30.7556V5.635H34.5606C36.5635 5.635 38.1927 7.28289 38.1927 9.30828V14.0297Z">
    </path>
    <path d="M19.9978 18.1531C15.7511 18.1531 12.2959 21.6416 12.2959 25.9296C12.2959 30.215 15.751 33.7014 19.9978 33.7014C24.2472 33.7014 27.7042 30.215 27.7042 25.9296C27.7042 21.6416 24.2471 18.1531 19.9978 18.1531ZM19.9978 32.5277C16.3981 32.5277 13.4696 29.5678 13.4696 25.9296C13.4696 22.2889 16.3981 19.3268 19.9978 19.3268C23.6 19.3268 26.5305 22.2889 26.5305 25.9296C26.5304 29.5678 23.6 32.5277 19.9978 32.5277Z"></path>
   <path d="M22.6369 25.3777H20.4052V22.0968C20.4052 21.7726 20.1425 21.5099 19.8183 21.5099C19.4941 21.5099 19.2314 21.7726 19.2314 22.0968V25.9646C19.2314 26.0416 19.2466 26.1179 19.2761 26.1891C19.3056 26.2603 19.3488 26.325 19.4033 26.3795C19.4578 26.434 19.5225 26.4772 19.5937 26.5066C19.6649 26.5361 19.7413 26.5512 19.8183 26.5512H22.6369C22.7145 26.5521 22.7916 26.5376 22.8635 26.5085C22.9355 26.4794 23.001 26.4363 23.0562 26.3818C23.1114 26.3272 23.1552 26.2622 23.1852 26.1906C23.2151 26.1189 23.2305 26.0421 23.2305 25.9644C23.2305 25.8868 23.2151 25.81 23.1852 25.7383C23.1552 25.6667 23.1114 25.6017 23.0562 25.5471C23.001 25.4926 22.9355 25.4495 22.8635 25.4204C22.7916 25.3913 22.7145 25.3768 22.6369 25.3777Z"></path>
</svg>