<?xml version="1.0" encoding="UTF-8"?>
<svg version="1.1" xmlns="http://www.w3.org/2000/svg" width="1024" height="1024">
<path d="M0 0 C1.86447314 1.67186228 3.59291102 3.40324688 5.3046875 5.23046875 C7.03333494 7.03479431 8.84496654 8.63419227 10.75 10.25 C14.82097043 13.74624519 18.57585927 17.51678737 22.31933594 21.35644531 C24.89860511 24.01955034 24.89860511 24.01955034 28 26 C28 26.66 28 27.32 28 28 C28.55171875 28.22300781 29.1034375 28.44601563 29.671875 28.67578125 C32.7305676 30.41554097 34.8073812 32.65764482 37.25 35.1875 C41.05927994 39.08812654 44.95832887 42.78521343 49.10546875 46.32421875 C51.86797849 48.76775829 54.41726658 51.40817912 57.00390625 54.03515625 C58.92107177 55.92230744 60.89575322 57.68685375 62.9375 59.4375 C66.81077427 62.76180627 70.36873325 66.34591722 73.9453125 69.984375 C76.09034949 72.15809591 76.09034949 72.15809591 79.0625 74.4375 C79.701875 74.953125 80.34125 75.46875 81 76 C81 76.66 81 77.32 81 78 C81.57234375 78.24492187 82.1446875 78.48984375 82.734375 78.7421875 C85.38024402 80.21110099 87.14853139 81.95348244 89.25 84.125 C90.30960938 85.21167969 90.30960938 85.21167969 91.390625 86.3203125 C91.92171875 86.87460938 92.4528125 87.42890625 93 88 C91.67952365 90.96015277 90.29959556 92.90501162 87.90234375 95.07641602 C86.96056274 95.94120827 86.96056274 95.94120827 85.99975586 96.82347107 C85.31921143 97.43988968 84.63866699 98.05630829 83.9375 98.69140625 C75.0542197 106.87625162 66.5139454 115.37161639 58 123.9375 C56.53148965 125.41104617 55.06274055 126.88435442 53.59375 128.35742188 C50.05975901 131.90222881 46.52895352 135.45017839 43 139 C40.08422898 137.58831242 37.71820179 136.10957418 35.25 134 C34.63640625 133.484375 34.0228125 132.96875 33.390625 132.4375 C32 131 32 131 32 129 C31.41428223 128.740979 30.82856445 128.48195801 30.22509766 128.21508789 C27.83515094 126.90997874 26.2928166 125.50660672 24.3984375 123.55859375 C23.41617188 122.55989258 23.41617188 122.55989258 22.4140625 121.54101562 C21.74117187 120.84685547 21.06828125 120.15269531 20.375 119.4375 C19.03088131 118.05901463 17.68462847 116.68260599 16.3359375 115.30859375 C15.74345215 114.69814209 15.1509668 114.08769043 14.54052734 113.45874023 C13.04565952 111.90189218 13.04565952 111.90189218 11 111 C11 108 11 108 12.53125 106.39453125 C13.1809375 105.87246094 13.830625 105.35039062 14.5 104.8125 C15.1496875 104.28269531 15.799375 103.75289063 16.46875 103.20703125 C16.9740625 102.80871094 17.479375 102.41039062 18 102 C17.29231642 99.04199472 17.29231642 99.04199472 16 96 C14.67849003 95.31019305 13.3430599 94.64684799 12 94 C10.58500807 92.74447759 9.21816579 91.43359255 7.890625 90.0859375 C7.13652344 89.32539063 6.38242187 88.56484375 5.60546875 87.78125 C4.82816406 86.9871875 4.05085938 86.193125 3.25 85.375 C2.06083984 84.17230469 2.06083984 84.17230469 0.84765625 82.9453125 C-1.10614493 80.96797154 -3.05512103 78.98611091 -5 77 C-7.8605891 78.35937085 -9.85927699 79.64520469 -12 82 C-15.34584964 80.54957091 -17.50054036 78.72261175 -20.0390625 76.12109375 C-20.78414063 75.36505859 -21.52921875 74.60902344 -22.296875 73.83007812 C-23.06515625 73.04052734 -23.8334375 72.25097656 -24.625 71.4375 C-26.15663169 69.87152109 -27.69038195 68.30761061 -29.2265625 66.74609375 C-29.90283691 66.05185303 -30.57911133 65.3576123 -31.27587891 64.64233398 C-32.91488551 62.92043505 -32.91488551 62.92043505 -35 62 C-35 59 -35 59 -33.3203125 57.17578125 C-32.59585937 56.56089844 -31.87140625 55.94601563 -31.125 55.3125 C-30.40570313 54.68988281 -29.68640625 54.06726563 -28.9453125 53.42578125 C-27 52 -27 52 -25 52 C-25 51.34 -25 50.68 -25 50 C-23.04072937 48.2856382 -21.04119788 46.61594832 -19 45 C-15.7413364 46.4264578 -13.5975146 48.16704162 -11.109375 50.6953125 C-10.40039062 51.41074219 -9.69140625 52.12617188 -8.9609375 52.86328125 C-7.86652344 53.98283203 -7.86652344 53.98283203 -6.75 55.125 C-6.00492187 55.87910156 -5.25984375 56.63320312 -4.4921875 57.41015625 C-2.6568658 59.26900772 -0.8263809 61.13237005 1 63 C2.134375 62.401875 3.26875 61.80375 4.4375 61.1875 C5.07558594 60.85105469 5.71367188 60.51460938 6.37109375 60.16796875 C8.32267987 59.00980201 8.32267987 59.00980201 9 56 C7.04516895 53.85088146 5.08636605 51.70564025 3.125 49.5625 C2.56941406 48.95083984 2.01382812 48.33917969 1.44140625 47.70898438 C0.90644531 47.12568359 0.37148438 46.54238281 -0.1796875 45.94140625 C-0.67194824 45.40201416 -1.16420898 44.86262207 -1.67138672 44.30688477 C-2.98787141 42.87756604 -2.98787141 42.87756604 -5 42 C-5 41.34 -5 40.68 -5 40 C-5.66 40 -6.32 40 -7 40 C-8.2265625 38.6796875 -8.2265625 38.6796875 -9.625 36.875 C-14.04773098 31.51543438 -19.56562431 26.41449362 -26.625 25.5625 C-36.68338243 25.79293002 -44.78342661 37.58545623 -51.375 44.3125 C-53.01060938 45.97577856 -54.64770537 47.63752703 -56.28775024 49.2964325 C-57.30110806 50.3220051 -58.31178068 51.35023961 -59.31942749 52.38142395 C-62.77665572 55.88832786 -62.77665572 55.88832786 -65 57 C-61.97337499 60.70761564 -59.00455531 64.10071505 -55.34375 67.1875 C-50.67285051 71.22180109 -46.3378492 75.55078421 -42 79.9375 C-41.22527344 80.71673828 -40.45054687 81.49597656 -39.65234375 82.29882812 C-37.76589243 84.1969242 -35.88183755 86.09733149 -34 88 C-35.81523355 91.97128431 -38.39410454 94.45470549 -41.625 97.3125 C-42.16769531 97.80105469 -42.71039063 98.28960937 -43.26953125 98.79296875 C-46.76471555 101.93116273 -50.29520483 105.02898476 -53.8515625 108.09765625 C-55.62209968 109.66538645 -57.35825579 111.25681402 -59.0859375 112.87109375 C-59.62863281 113.37640625 -60.17132813 113.88171875 -60.73046875 114.40234375 C-61.81254375 115.41245176 -62.89079141 116.42667809 -63.96484375 117.4453125 C-67.77841605 121 -67.77841605 121 -70 121 C-70.33 121.99 -70.66 122.98 -71 124 C-72.53125 125.54296875 -72.53125 125.54296875 -74.5 127.1875 C-75.21414063 127.80109375 -75.92828125 128.4146875 -76.6640625 129.046875 C-78.24600988 130.36957348 -79.84574929 131.6712296 -81.4609375 132.953125 C-86.70588493 137.18582029 -86.70588493 137.18582029 -89.6875 143.0625 C-90.02763083 147.34814842 -89.73066596 150.06666827 -88 154 C-87.42217773 154.28721924 -86.84435547 154.57443848 -86.24902344 154.87036133 C-83.16200543 156.42090761 -81.02072989 158.75226626 -78.640625 161.19921875 C-78.1325531 161.71249222 -77.6244812 162.22576569 -77.10101318 162.7545929 C-75.47916351 164.39419699 -73.8641434 166.04031153 -72.25 167.6875 C-65.69186206 174.35983931 -59.15780402 180.9607339 -52 187 C-50.33121676 188.47677835 -48.66408241 189.95542661 -47 191.4375 C-46.236875 192.11683594 -45.47375 192.79617188 -44.6875 193.49609375 C-44.130625 193.99238281 -43.57375 194.48867188 -43 195 C-41.72390677 194.09066991 -40.45434447 193.17217147 -39.1875 192.25 C-38.47980469 191.73953125 -37.77210938 191.2290625 -37.04296875 190.703125 C-34.97022309 188.97517642 -33.52624146 187.21473524 -32 185 C-32.99233974 183.80609125 -33.99448154 182.62033087 -35 181.4375 C-35.8353125 180.44556641 -35.8353125 180.44556641 -36.6875 179.43359375 C-38.55725883 177.46592525 -40.41093088 175.75553 -42.46875 174 C-48.45164879 168.8378073 -53.93794102 163.16837425 -59.5 157.5625 C-60.61955632 156.4379167 -61.73934629 155.31356595 -62.859375 154.18945312 C-65.57561534 151.46230656 -68.28868292 148.73204093 -71 146 C-61.85104761 136.81388854 -52.53773126 127.59630492 -42 120 C-38.45815946 121.498471 -36.27223438 123.54915885 -33.625 126.3125 C-30.23101204 129.79063642 -26.80184231 132.97802278 -23 136 C-21.68 134.68 -20.36 133.36 -19 132 C-15.57770031 133.49676889 -13.17529787 135.47418977 -10.4375 138 C-9.56222656 138.80179688 -8.68695313 139.60359375 -7.78515625 140.4296875 C-6.86605469 141.27789062 -5.94695312 142.12609375 -5 143 C5.74467815 152.92158225 5.74467815 152.92158225 16.9375 162.32421875 C17.948125 163.12472656 18.95875 163.92523438 20 164.75 C20.94875 165.48734375 21.8975 166.2246875 22.875 166.984375 C23.57625 167.64953125 24.2775 168.3146875 25 169 C25 172 25 172 23.46875 173.60546875 C22.8190625 174.12753906 22.169375 174.64960938 21.5 175.1875 C20.8503125 175.71730469 20.200625 176.24710938 19.53125 176.79296875 C19.0259375 177.19128906 18.520625 177.58960938 18 178 C22.91270817 184.14088521 28.56005727 189.30419315 34.39013672 194.54296875 C35.98251919 195.98417872 37.55811615 197.44156102 39.12890625 198.90625 C44.86335695 204.24512727 50.6941398 209.33430041 57 214 C57.22171875 213.35933594 57.4434375 212.71867188 57.671875 212.05859375 C59.50644655 207.83368338 61.86418642 203.99669701 64.25 200.0625 C64.77795166 199.187146 65.30590332 198.31179199 65.84985352 197.40991211 C70.36232065 189.96787134 75.01860581 182.62121335 79.71142578 175.29199219 C84.29231158 168.13427946 88.78195549 160.92423509 93.24145508 153.69042969 C96.83107535 147.87308987 100.46341776 142.08477914 104.125 136.3125 C108.37017732 129.616193 112.53707817 122.87734517 116.65600586 116.1027832 C120.45144645 109.87129284 124.3128081 103.68246441 128.1875 97.5 C133.56355599 88.92171449 138.89229807 80.31592149 144.1875 71.6875 C148.72080345 64.30057624 153.28365651 56.93657675 157.9375 49.625 C163.80688987 40.39903999 169.47023414 31.04919652 175.12670898 21.69189453 C178.70865305 15.76713693 182.30914272 9.85770108 186 4 C190.65484107 5.47359959 193.85502507 8.18435037 197.4375 11.375 C198.68475444 12.46500557 199.93215437 13.55484467 201.1796875 14.64453125 C202.13053223 15.48105225 202.13053223 15.48105225 203.10058594 16.33447266 C206.066657 18.93531286 209.06452384 21.49857993 212.0625 24.0625 C212.63170166 24.55057129 213.20090332 25.03864258 213.78735352 25.54150391 C219.83332226 30.72376283 225.9142761 35.86453863 232 41 C229.4310745 45.68623625 226.70402237 49.86055809 223.375 54.0625 C219.84274239 58.56982835 216.42751843 63.1342642 213.125 67.8125 C209.57575739 72.8300097 205.94921217 77.77949015 202.25 82.6875 C197.84091359 88.53779941 193.46695263 94.41217627 189.125 100.3125 C188.54153809 101.10527344 187.95807617 101.89804688 187.35693359 102.71484375 C185.57075199 105.14283477 183.78524822 107.57132262 182 110 C174.887696 119.67568074 167.76513804 129.34148553 160.54296875 138.93554688 C156.61628325 144.158976 152.74235085 149.42004516 148.875 154.6875 C144.15202262 161.11610374 139.36029771 167.4776611 134.4765625 173.78515625 C127.1219098 183.30242002 119.99525493 192.9945419 112.875 202.6875 C108.88164084 208.12133638 104.86824748 213.53503598 100.75 218.875 C99.97527344 219.88175781 99.20054687 220.88851562 98.40234375 221.92578125 C96.66389177 224.15043444 94.90852932 226.35188589 93.12890625 228.54296875 C92.42266113 229.425896 92.42266113 229.425896 91.70214844 230.32666016 C90.79804036 231.45600106 89.88377521 232.57730976 88.95800781 233.68896484 C86.60269539 236.5877913 86.60269539 236.5877913 86.0390625 240.1640625 C87.1478845 242.28254355 88.33148869 243.66035025 90.0625 245.3125 C90.69414063 245.91707031 91.32578125 246.52164062 91.9765625 247.14453125 C95.26465364 250.15967274 98.6179486 253.0910522 102 256 C103.50111215 257.31122788 105.00114686 258.62369046 106.5 259.9375 C107.1703125 260.52402344 107.840625 261.11054688 108.53125 261.71484375 C109.0159375 262.13894531 109.500625 262.56304687 110 263 C113.52063396 261.49651042 115.78772106 259.45724049 118.4765625 256.75390625 C119.311875 255.91666016 120.1471875 255.07941406 121.0078125 254.21679688 C121.87148438 253.34087891 122.73515625 252.46496094 123.625 251.5625 C124.49640625 250.69044922 125.3678125 249.81839844 126.265625 248.91992188 C130.96900153 244.2404267 130.96900153 244.2404267 135 239 C135.66 239 136.32 239 137 239 C137.23332031 238.43796875 137.46664062 237.8759375 137.70703125 237.296875 C139.31937076 234.43265858 141.3193562 232.52747979 143.6875 230.25 C147.41136945 226.60627121 150.90478319 222.88595768 154.2890625 218.9296875 C156.7469496 216.15754999 159.39623604 213.59449311 162.03515625 210.99609375 C163.92230744 209.07892823 165.68685375 207.10424678 167.4375 205.0625 C170.00665271 202.07198284 172.69317256 199.26883316 175.5 196.5 C178.77711539 193.26130975 181.84817184 189.93860245 184.84375 186.44140625 C188.47588519 182.32893434 192.2580088 178.35446586 196.02612305 174.36669922 C198.5760946 171.65570279 201.01252547 168.9839019 203.30078125 166.04296875 C203.86152344 165.36878906 204.42226563 164.69460938 205 164 C205.66 164 206.32 164 207 164 C207.23332031 163.43796875 207.46664062 162.8759375 207.70703125 162.296875 C209.31937076 159.43265858 211.3193562 157.52747979 213.6875 155.25 C217.37793372 151.69157246 220.78235606 147.99517029 224.13305664 144.12304688 C227.94001929 139.79385278 231.94960539 135.64960387 235.921875 131.47265625 C236.56382812 130.79332031 237.20578125 130.11398438 237.8671875 129.4140625 C238.73512939 128.50068115 238.73512939 128.50068115 239.62060547 127.56884766 C241.09037518 126.0315332 241.09037518 126.0315332 242 124 C242.66 124 243.32 124 244 124 C244 123.34 244 122.68 244 122 C244.66 122 245.32 122 246 122 C246.33 121.01 246.66 120.02 247 119 C251.03670615 120.63991188 253.89049501 123.4839111 257 126.4375 C258.16253843 127.52627874 259.32530391 128.61481509 260.48828125 129.703125 C261.36734131 130.52973633 261.36734131 130.52973633 262.26416016 131.37304688 C264.88692336 133.83128794 267.53567279 136.26069729 270.1875 138.6875 C270.92226562 139.36135742 270.92226562 139.36135742 271.671875 140.04882812 C275.70121172 143.73970056 279.76538001 147.39079718 283.84375 151.02734375 C285.95839813 152.96194032 287.9896765 154.95769408 290 157 C289.360625 157.268125 288.72125 157.53625 288.0625 157.8125 C285.66868314 158.88667752 285.66868314 158.88667752 285 162 C283.44996996 163.39589947 281.83365761 164.71887019 280.1875 166 C275.97015997 169.36077808 271.94035165 172.8200665 268 176.5 C264.33458728 179.91341559 260.60281843 183.18604573 256.6875 186.3125 C250.02310974 191.67298782 243.88835453 197.58182035 237.66503906 203.43945312 C235.52755266 205.44279815 233.37093121 207.42182154 231.1875 209.375 C230.60355469 209.89835938 230.01960937 210.42171875 229.41796875 210.9609375 C228 212 228 212 226 212 C226 212.66 226 213.32 226 214 C224.6015625 215.41015625 224.6015625 215.41015625 222.625 217.0625 C219.41657062 219.7907947 216.25019633 222.55144446 213.125 225.375 C211.86429688 226.51195312 211.86429688 226.51195312 210.578125 227.671875 C209.72734375 228.44015625 208.8765625 229.2084375 208 230 C198.5078125 238.57173295 198.5078125 238.57173295 194.125 242.375 C190.69667808 245.35916686 187.34379199 248.42188484 184 251.5 C180.03864857 255.14660718 176.04208852 258.74328939 171.9765625 262.2734375 C165.8300743 267.64250427 159.81777204 273.1617114 153.8125 278.6875 C149.61499825 282.54922831 145.36561382 286.32891565 141 290 C142.10933603 293.3280081 142.94789311 294.04785848 145.578125 296.234375 C149.76057527 299.78368498 153.76457436 303.48222203 157.75 307.25 C167.37417041 316.30863679 177.08360583 325.2605516 187 334 C199.52833384 322.60621662 211.99444371 311.13398658 223.890625 299.078125 C225.80557397 297.19154565 227.76641211 295.42921118 229.8125 293.6875 C234.18696186 289.95190478 238.17200015 285.85454111 242.21313477 281.76733398 C245.7198874 278.23608359 249.31378526 274.89334192 253.109375 271.671875 C256.14651241 268.98614192 258.9428397 266.06476658 261.7890625 263.1796875 C263.75892811 261.23766452 265.77153633 259.41938329 267.875 257.625 C271.2455781 254.73785143 274.38502836 251.65751863 277.5 248.5 C280.51230779 245.44682658 283.53548926 242.45927568 286.8125 239.6875 C290.75401549 236.33111671 294.36137516 232.6768156 298 229 C305.28086542 221.64303461 305.28086542 221.64303461 308.9375 218.5625 C313.74817649 214.49992007 318.08031681 209.94322955 322.50708008 205.47338867 C326.17980163 201.77863905 329.89711383 198.2430727 333.890625 194.89453125 C337.63528448 191.53127228 341.11518166 187.88571737 344.60986328 184.26513672 C346.03710774 182.80715292 347.51482388 181.39892652 349 180 C349.66 180 350.32 180 351 180 C351.33 179.01 351.66 178.02 352 177 C353.41699219 175.60424805 353.41699219 175.60424805 355.296875 174.07421875 C361.28121352 168.99607244 366.72731326 163.37950872 372.25 157.8125 C373.33570093 156.72176968 374.42163695 155.63127331 375.5078125 154.54101562 C377.49657037 152.54416269 379.48398256 150.5459925 381.46972656 148.54614258 C383.64234136 146.35990177 385.81912549 144.17799652 388 142 C391.44779086 143.50006391 393.82360533 145.50409262 396.5625 148.0625 C400.12296928 151.33018473 403.7393292 154.46479193 407.5 157.5 C412.04433402 161.17537497 416.40601672 165.00485482 420.7109375 168.95703125 C423.02187711 171.08057892 423.02187711 171.08057892 425.7890625 173.07421875 C426.51867187 173.70972656 427.24828125 174.34523438 428 175 C428 175.99 428 176.98 428 178 C426.05078125 179.83984375 426.05078125 179.83984375 423.3125 181.9375 C418.8714967 185.44925614 414.63793737 189.07402397 410.5 192.9375 C409.95553223 193.44490723 409.41106445 193.95231445 408.85009766 194.47509766 C407.76105421 195.49099881 406.6725064 196.50743158 405.58447266 197.52441406 C399.48988381 203.200176 393.29883831 208.76849025 387.015625 214.234375 C381.06248304 219.44914276 375.22379609 224.79393966 369.375 230.125 C365.62344946 233.53980547 361.83848025 236.90830015 358.01171875 240.23828125 C351.88162791 245.6065744 345.87280479 251.10996145 339.875 256.625 C335.9458344 260.23670738 331.98830088 263.8081919 327.94921875 267.296875 C326.47845467 268.58195143 325.02572391 269.88770875 323.58203125 271.203125 C322.77121094 271.94046875 321.96039062 272.6778125 321.125 273.4375 C320.38507812 274.11683594 319.64515625 274.79617188 318.8828125 275.49609375 C317 277 317 277 315 277 C314.67 277.99 314.34 278.98 314 280 C312.34442971 281.47798317 310.62553414 282.88582353 308.875 284.25 C304.88698483 287.43012049 301.20688507 290.66776803 297.6640625 294.328125 C295.27847909 296.72490834 292.72744074 298.90920973 290.16796875 301.1171875 C287.75157049 303.2157532 285.37470976 305.354397 283 307.5 C279.38323655 310.76390848 275.73610392 313.98790949 272.0625 317.1875 C268.8248667 320.0326929 265.6331371 322.92853836 262.43359375 325.81640625 C260.32488854 327.70848685 258.20080199 329.57905758 256.0625 331.4375 C251.86557919 335.09178862 247.7634724 338.84744973 243.65234375 342.59765625 C241.47539004 344.56941844 239.28161326 346.51365337 237.0625 348.4375 C233.11332633 351.86768576 229.26977695 355.41003518 225.42211914 358.95288086 C222.03537381 362.06599299 218.60093751 365.11252082 215.125 368.125 C212.38176582 370.54550075 209.69115432 373.02200642 207 375.5 C203.69971077 378.53888018 200.39050717 381.56156045 197 384.5 C193.10370458 387.87786942 189.31220536 391.36673231 185.51855469 394.85864258 C181.05909666 398.95881115 176.54481273 402.99459687 172 407 C173.44757265 410.94496149 174.98237923 413.08296659 178 416 C178 416.66 178 417.32 178 418 C178.66 418 179.32 418 180 418 C184.03092957 424.3517678 184.03092957 424.3517678 183.90625 426.96484375 C182.63650892 429.81628817 180.79798389 431.28356499 178.4375 433.3125 C177.19806641 434.38951172 177.19806641 434.38951172 175.93359375 435.48828125 C174.96550781 436.31714844 173.99742187 437.14601563 173 438 C167.35832928 442.85705752 161.89466424 447.87064712 156.5 453 C151.64810315 457.61327897 146.76257629 462.13631972 141.64648438 466.45703125 C139.77013246 468.09799466 139.77013246 468.09799466 138 471 C138.96679688 471.89460938 139.93359375 472.78921875 140.9296875 473.7109375 C147.80154824 480.08772014 154.60254798 486.48971844 161.14453125 493.20703125 C162.88336263 495.06665308 162.88336263 495.06665308 165 496 C165 496.66 165 497.32 165 498 C165.86238281 498.36931641 165.86238281 498.36931641 166.7421875 498.74609375 C169.35639827 500.19793053 171.06336208 501.90287549 173.125 504.0625 C175.77905 506.91571933 175.77905 506.91571933 179 509 C179 509.66 179 510.32 179 511 C179.66 511 180.32 511 181 511 C181 511.66 181 512.32 181 513 C181.58910156 513.26167969 182.17820312 513.52335938 182.78515625 513.79296875 C185.11785434 515.0642275 186.60354368 516.40230531 188.4375 518.3125 C189.04078125 518.93253906 189.6440625 519.55257812 190.265625 520.19140625 C190.83796875 520.78824219 191.4103125 521.38507812 192 522 C195.47239779 525.55733656 195.47239779 525.55733656 199.3125 528.6875 C200.1478125 529.3371875 200.1478125 529.3371875 201 530 C201 530.66 201 531.32 201 532 C201.53625 532.20625 202.0725 532.4125 202.625 532.625 C206.0017654 534.57996944 208.30474839 537.18223695 211 540 C211.5775 539.71125 212.155 539.4225 212.75 539.125 C215.875 537.5625 215.875 537.5625 219 536 C219 535.34 219 534.68 219 534 C220.53125 532.4921875 220.53125 532.4921875 222.5 530.875 C223.47453125 530.06675781 223.47453125 530.06675781 224.46875 529.2421875 C224.9740625 528.83226562 225.479375 528.42234375 226 528 C223.19151323 525.16681071 220.379765 522.33690379 217.56494141 519.51000977 C216.60765619 518.54769305 215.65127006 517.58448108 214.69580078 516.62036133 C213.32300212 515.23544555 211.94670528 513.85400009 210.5703125 512.47265625 C209.74289551 511.64000244 208.91547852 510.80734863 208.06298828 509.94946289 C206.15224807 507.9555946 206.15224807 507.9555946 204 507 C204 506.34 204 505.68 204 505 C203.4225 504.773125 202.845 504.54625 202.25 504.3125 C198.37602666 502.05268222 196.41830291 499.31068244 195.0625 495.0625 C194.96249788 490.16239636 197.10490928 487.00887344 200.3046875 483.40234375 C201.15289063 482.58894531 202.00109375 481.77554687 202.875 480.9375 C204.13957031 479.71353516 204.13957031 479.71353516 205.4296875 478.46484375 C206.27789063 477.65144531 207.12609375 476.83804687 208 476 C211.00096239 473.03952276 213.93605683 470.02437916 216.84765625 466.9765625 C218.25234805 465.52579364 219.65730156 464.07527814 221.0625 462.625 C221.76955078 461.87605469 222.47660156 461.12710937 223.20507812 460.35546875 C224.2347168 459.30166016 224.2347168 459.30166016 225.28515625 458.2265625 C225.90269775 457.58283691 226.52023926 456.93911133 227.15649414 456.27587891 C229 455 229 455 231.04760742 455.14355469 C234.33321779 456.58483532 236.70216782 459.16292106 239.25 461.625 C240.41726137 462.72861324 241.58522718 463.83148191 242.75390625 464.93359375 C243.59526123 465.73192627 243.59526123 465.73192627 244.45361328 466.54638672 C246.32602992 468.30647018 248.24404881 470.0063551 250.1875 471.6875 C253.15726789 474.25713074 256.08511071 476.86819555 259 479.5 C263.29594745 483.37699282 267.63151246 487.20502898 272 491 C277.30566568 487.27474537 281.89332336 483.26487117 286.3359375 478.5390625 C288 477 288 477 290 477 C283.89246101 469.79271123 277.47176787 462.96943143 270.30078125 456.80859375 C265.50793082 452.64359833 261.07597549 448.14930293 256.625 443.625 C255.03616475 442.01074338 253.44513097 440.39864674 251.8515625 438.7890625 C251.15885254 438.08475098 250.46614258 437.38043945 249.75244141 436.65478516 C248.08833587 434.92378526 248.08833587 434.92378526 246 434 C246 433.34 246 432.68 246 432 C245.34 432 244.68 432 244 432 C244 431.34 244 430.68 244 430 C243.42564209 429.75233887 242.85128418 429.50467773 242.25952148 429.24951172 C239.65084281 427.80691664 237.92957634 426.1397178 235.84765625 424.0078125 C235.07099609 423.22019531 234.29433594 422.43257812 233.49414062 421.62109375 C232.69169922 420.79738281 231.88925781 419.97367188 231.0625 419.125 C229.472427 417.5002765 227.88004587 415.87780809 226.28515625 414.2578125 C225.58269775 413.5373877 224.88023926 412.81696289 224.15649414 412.07470703 C221.97419671 409.90081405 221.97419671 409.90081405 219.23217773 407.85888672 C218.49555908 407.2454541 217.75894043 406.63202148 217 406 C217 405.34 217 404.68 217 404 C218.53195272 402.62787699 220.12921081 401.3284554 221.75 400.0625 C226.03983734 396.63394274 230.16133734 393.1087022 234.1875 389.375 C234.68846191 388.9119043 235.18942383 388.44880859 235.70556641 387.97167969 C237.13711445 386.64786234 238.56855926 385.32393337 240 384 C241.53476311 382.59657953 243.07542652 381.19955041 244.625 379.8125 C245.23601563 379.26207031 245.84703125 378.71164062 246.4765625 378.14453125 C248 377 248 377 250 377 C250 376.34 250 375.68 250 375 C253.42768661 375.58763037 255.12590397 376.7315889 257.609375 379.1328125 C258.28226563 379.77476562 258.95515625 380.41671875 259.6484375 381.078125 C260.34195313 381.75359375 261.03546875 382.4290625 261.75 383.125 C263.11849123 384.44145734 264.48828177 385.75656537 265.859375 387.0703125 C266.54386719 387.72676758 267.22835937 388.38322266 267.93359375 389.05957031 C270.5746015 391.53957145 273.30171821 393.90938391 276.04003906 396.28076172 C279.26551459 399.11008392 282.37814883 402.05742507 285.5 405 C289.90705276 409.13478571 294.33233664 413.22257781 298.9140625 417.1640625 C301.82363768 419.72492455 304.65828008 422.36430076 307.5 425 C312.78373221 429.8946954 318.14109622 434.6790825 323.60058594 439.37744141 C331.29042924 446.00006311 338.91706954 452.66443776 346.34375 459.58203125 C348.64615667 461.6778985 351.00852654 463.6184149 353.4375 465.5625 C358.53600985 470.05429782 361.50874366 475.29668294 362.40625 482.0625 C362.67542193 491.03489766 360.37987283 497.04906966 354.3515625 503.62890625 C347.25148825 510.78795122 339.74489037 517.55098326 332.11328125 524.13671875 C328.65956711 527.18186042 325.29704279 530.32553537 321.91992188 533.45507812 C317.82269791 537.24915489 313.68572087 540.99561809 309.52734375 544.72265625 C306.66917797 547.29809775 303.83289739 549.89685764 301 552.5 C296.54938022 556.58920545 292.06921883 560.64369115 287.5703125 564.6796875 C284.65571526 567.31079807 281.76462591 569.96654417 278.875 572.625 C275.6161367 575.62184414 272.34500325 578.59914656 269 581.5 C262.43042589 587.20266124 256.0779504 593.15277742 249.69140625 599.05859375 C244.00332871 604.31826651 238.29662424 609.55181004 232.52734375 614.72265625 C229.66917758 617.2980981 226.83293383 619.89689696 224 622.5 C217.90016822 628.10307436 211.74438779 633.64212966 205.578125 639.171875 C201.11719485 643.17818807 196.67329979 647.20215271 192.25 651.25 C191.75983398 651.69819092 191.26966797 652.14638184 190.76464844 652.6081543 C187.88676481 655.24652195 185.03250273 657.90773419 182.1953125 660.58984375 C181.55948242 661.18829102 180.92365234 661.78673828 180.26855469 662.40332031 C179.02306256 663.57687065 177.78140283 664.75450401 176.54394531 665.93652344 C172.2235681 670 172.2235681 670 170 670 C170 670.66 170 671.32 170 672 C168.70703125 673.3046875 168.70703125 673.3046875 166.8125 674.875 C162.9476605 678.15633798 159.21141488 681.5480311 155.5 685 C151.41761645 688.7869708 147.30227598 692.51769371 143.08984375 696.16015625 C140.35629401 698.56670191 137.67887646 701.03304949 135 703.5 C131.06717596 707.12092721 127.09785918 710.68958986 123.05859375 714.19140625 C120.5104335 716.4301125 118.00589407 718.71410212 115.5 721 C112.38092989 723.84524228 109.25244609 726.6719958 106.0625 729.4375 C102.65310269 732.3988451 99.32244126 735.44193168 96 738.5 C88.78456092 745.12723007 88.78456092 745.12723007 85.5 748.0625 C84.9121875 748.58972656 84.324375 749.11695313 83.71875 749.66015625 C81.90419672 751.07468301 80.08720136 752.04336604 78 753 C78 753.66 78 754.32 78 755 C76.6015625 756.41015625 76.6015625 756.41015625 74.625 758.0625 C70.37741597 761.65893924 66.28224201 765.39792341 62.19921875 769.1796875 C60 771 60 771 57 772 C57 772.66 57 773.32 57 774 C55.671875 775.33984375 55.671875 775.33984375 53.75 776.9375 C50.69464646 779.52569052 47.723709 782.17334051 44.80566406 784.91577148 C31.29426222 797.55454355 17.91588269 808.49053001 -1.4921875 808.2734375 C-11.34016259 807.50577797 -20.32706423 803.13230693 -28 797 C-28 796.34 -28 795.68 -28 795 C-28.53625 794.79375 -29.0725 794.5875 -29.625 794.375 C-32.91978009 792.46749574 -35.59363628 789.95180616 -38 787 C-38 786.34 -38 785.68 -38 785 C-38.54785156 784.77957031 -39.09570312 784.55914063 -39.66015625 784.33203125 C-42.73548994 782.58129871 -45.00158721 780.21052934 -47.4375 777.6875 C-47.90220703 777.21376953 -48.36691406 776.74003906 -48.84570312 776.25195312 C-50.23322758 774.83733614 -51.61663507 773.41868488 -53 772 C-54.66403578 770.3307066 -56.33075535 768.66408469 -58 767 C-58.97933323 766.02099993 -59.95849246 765.04182576 -60.9375 764.0625 C-61.44023437 763.55976562 -61.94296875 763.05703125 -62.4609375 762.5390625 C-67.0625 757.9375 -67.0625 757.9375 -68.54736328 756.44824219 C-69.95620469 755.04366282 -71.38023354 753.65436841 -72.8046875 752.265625 C-74.82161306 750.1841004 -75.73099951 748.53800098 -77 746 C-77.99 745.67 -78.98 745.34 -80 745 C-80 744.34 -80 743.68 -80 743 C-80.61875 742.7525 -81.2375 742.505 -81.875 742.25 C-84.40358627 740.76259631 -84.71839004 739.56321991 -86 737 C-86.60585938 736.71253906 -87.21171875 736.42507813 -87.8359375 736.12890625 C-90.43064763 734.77534808 -91.7705413 733.18817565 -93.625 730.9375 C-95.95485552 728.02124288 -95.95485552 728.02124288 -99 726 C-99 725.34 -99 724.68 -99 724 C-99.66 724 -100.32 724 -101 724 C-102.25634766 722.71142578 -102.25634766 722.71142578 -103.7890625 720.8203125 C-107.11362674 716.90632319 -110.65590207 713.31535638 -114.3359375 709.7421875 C-114.90435364 709.18654114 -115.47276978 708.63089478 -116.05841064 708.05841064 C-118.43185793 705.73843317 -120.80690952 703.42060388 -123.20068359 701.12158203 C-124.96566402 699.4232226 -126.71426696 697.70934571 -128.4609375 695.9921875 C-129.0025351 695.47953339 -129.54413269 694.96687927 -130.10214233 694.43869019 C-133.44382565 691.12120581 -134.84272528 688.73758552 -135 684 C-134.67 683.34 -134.34 682.68 -134 682 C-133.34 682 -132.68 682 -132 682 C-131.78601563 681.44828125 -131.57203125 680.8965625 -131.3515625 680.328125 C-129.54530467 677.21676759 -127.04903456 675.09461259 -124.375 672.75 C-119.91751849 668.77072859 -115.64171371 664.69876612 -111.5234375 660.36328125 C-110 659 -110 659 -108 659 C-108 658.34 -108 657.68 -108 657 C-106.70703125 655.6953125 -106.70703125 655.6953125 -104.8125 654.125 C-100.96346544 650.85024413 -97.21272 647.48983209 -93.5 644.0625 C-92.93619629 643.54228271 -92.37239258 643.02206543 -91.79150391 642.48608398 C-88.05338565 639.01932461 -84.43002957 635.45975289 -80.85546875 631.82421875 C-77.70683679 628.72861638 -74.36141386 625.86077775 -71 623 C-65.69433432 626.72525463 -61.10667664 630.73512883 -56.6640625 635.4609375 C-55.1330651 637.22633185 -55.1330651 637.22633185 -53 637 C-51.66015625 638.36328125 -51.66015625 638.36328125 -50.0625 640.3125 C-43.63939526 647.85964807 -36.56341661 654.76493921 -29.02734375 661.19140625 C-25.6839383 664.1740589 -22.5892363 667.40356692 -19.44140625 670.58984375 C-16.72973471 673.2668059 -13.89759396 675.74371019 -11 678.21484375 C-8.70907611 680.2596723 -6.58136372 682.42681541 -4.4375 684.625 C-0.86065752 688.25773065 2.74885602 691.19605397 7 694 C7.4846875 693.50371094 7.969375 693.00742187 8.46875 692.49609375 C14.64217546 686.23956449 21.07106471 680.41323069 28 675 C30.64 677.31 33.28 679.62 36 682 C39.52667247 680.23666377 41.59094981 678.73968215 44.4375 676.125 C47.54749301 673.30239908 50.67679163 670.57280648 54 668 C51.78071806 665.09197539 50.07030857 663.04687238 47 661 C47 660.34 47 659.68 47 659 C46.46375 658.79761719 45.9275 658.59523438 45.375 658.38671875 C41.38575507 656.05747212 38.51407471 652.47460925 35.421875 649.08007812 C33.72421448 647.24353261 33.72421448 647.24353261 31 645 C27.54089143 645.43633195 25.74001223 646.80642474 23.1875 649.125 C22.49527344 649.74632812 21.80304688 650.36765625 21.08984375 651.0078125 C18.48001639 653.49568531 16.03432994 656.11667696 13.640625 658.8125 C12 660 12 660 10.11328125 659.9609375 C7.21853957 658.6446594 5.26010224 656.78995956 2.9375 654.625 C2.08027344 653.83351563 1.22304688 653.04203125 0.33984375 652.2265625 C-1.4667108 650.50747052 -3.25123959 648.77742862 -5 647 C1.42225856 641.09637744 7.85957545 635.2129002 14.359375 629.39453125 C16.34436328 627.59453448 18.31050047 625.78115454 20.265625 623.94921875 C20.83289307 623.4193335 21.40016113 622.88944824 21.98461914 622.34350586 C23.08343976 621.31526182 24.17921735 620.28375159 25.27124023 619.24829102 C28.96486466 615.79622417 32.83642964 612.86998309 37 610 C37.4125 610.49628906 37.825 610.99257813 38.25 611.50390625 C42.49606112 616.49871476 46.98052971 620.79803301 52 625 C53.13337805 625.9602704 54.26614247 626.92126531 55.3984375 627.8828125 C58.5938982 630.5945726 61.79563977 633.2987634 65 636 C67.96355071 634.65691898 70.13557537 633.14964148 72.49609375 630.91796875 C73.45805664 630.01401367 73.45805664 630.01401367 74.43945312 629.09179688 C75.09880859 628.46337891 75.75816406 627.83496094 76.4375 627.1875 C77.09298828 626.57068359 77.74847656 625.95386719 78.42382812 625.31835938 C79.70407842 624.11001882 80.97821985 622.89516693 82.24560547 621.67333984 C83.78861582 620.20161803 85.37742774 618.77823426 86.97265625 617.36328125 C89.19103234 615.2072062 89.19103234 615.2072062 89.33679199 612.59884644 C88.91345601 609.33218559 87.96458645 608.35219454 85.63867188 606.05517578 C84.90370483 605.3173587 84.16873779 604.57954163 83.41149902 603.81936646 C82.60539185 603.03592865 81.79928467 602.25249084 80.96875 601.4453125 C80.14427368 600.62553925 79.31979736 599.80576599 78.47033691 598.96115112 C75.82502515 596.33721076 73.16261779 593.7313653 70.5 591.125 C68.73589133 589.37739951 66.97285743 587.62871339 65.2109375 585.87890625 C55.19968153 575.94715875 55.19968153 575.94715875 44.7232666 566.51412964 C43 565 43 565 41.46130371 563.3664856 C39.93137628 561.74546523 39.93137628 561.74546523 37 561 C37 561.66 37 562.32 37 563 C35.6015625 564.41015625 35.6015625 564.41015625 33.625 566.0625 C30.37058933 568.82817409 27.16586167 571.63308192 24 574.5 C21.06321535 577.15113994 18.11397458 579.78290171 15.125 582.375 C11.69667046 585.35917349 8.34405402 588.42216257 5 591.5 C-19.59852571 614.10972498 -19.59852571 614.10972498 -26.875 613.875 C-31.10835256 613.217007 -33.70900608 611.71506998 -37 609 C-37 608.34 -37 607.68 -37 607 C-38.32 606.34 -39.64 605.68 -41 605 C-41 604.34 -41 603.68 -41 603 C-41.66 603 -42.32 603 -43 603 C-43 602.34 -43 601.68 -43 601 C-43.83229126 600.65775391 -43.83229126 600.65775391 -44.68139648 600.30859375 C-47.66249404 598.62609581 -49.70003505 596.50591329 -52.09765625 594.0625 C-52.57319443 593.58176025 -53.0487326 593.10102051 -53.53868103 592.60571289 C-55.05147514 591.07517199 -56.55739088 589.53809583 -58.0625 588 C-59.57203403 586.46279238 -61.08302545 584.9270916 -62.59703064 583.39428711 C-63.96911706 582.00439613 -65.3363686 580.60973715 -66.70336914 579.21484375 C-68.99009126 576.87782624 -68.99009126 576.87782624 -72 575 C-72 574.34 -72 573.68 -72 573 C-72.59458008 572.7321167 -73.18916016 572.4642334 -73.80175781 572.18823242 C-76.02239757 570.98789327 -77.4243607 569.79297002 -79.171875 567.98828125 C-80.038125 567.10462891 -80.038125 567.10462891 -80.921875 566.203125 C-81.52515625 565.57921875 -82.1284375 564.9553125 -82.75 564.3125 C-88.20463662 558.7258902 -88.20463662 558.7258902 -94 553.5 C-97.88724097 550.2159516 -101.42281063 546.61325636 -105 543 C-112.067316 535.49080767 -112.067316 535.49080767 -120 529 C-123.04968266 528.68062702 -123.04968266 528.68062702 -125.00537109 530.66479492 C-125.75383301 531.42896729 -126.50229492 532.19313965 -127.2734375 532.98046875 C-128.0984375 533.81513672 -128.9234375 534.64980469 -129.7734375 535.50976562 C-131.06121094 536.83524414 -131.06121094 536.83524414 -132.375 538.1875 C-133.22578125 539.05181641 -134.0765625 539.91613281 -134.953125 540.80664062 C-136.59952144 542.47996411 -138.24277782 544.15638411 -139.88256836 545.83618164 C-141.45960795 547.44776954 -143.05205523 549.04430814 -144.65234375 550.6328125 C-147.22828222 553.23018141 -149.72187884 555.89404746 -152.21508789 558.57055664 C-159.57677021 566.47167651 -167.09562277 574.18646844 -174.7956543 581.75854492 C-178.85471415 585.76957403 -182.70360225 589.87753256 -186.42553711 594.20288086 C-188.51018431 596.58233319 -190.73409226 598.79372141 -193 601 C-196.60719127 604.56359983 -199.99477889 608.21924856 -203.2890625 612.0703125 C-205.7469496 614.84245001 -208.39623604 617.40550689 -211.03515625 620.00390625 C-212.92230744 621.92107177 -214.68685375 623.89575322 -216.4375 625.9375 C-219.00665271 628.92801716 -221.69317256 631.73116684 -224.5 634.5 C-227.2244154 637.1877846 -229.83260312 639.89816863 -232.3125 642.8125 C-235.85875323 646.9539286 -239.71450839 650.74257706 -243.59033203 654.57080078 C-246.98269058 657.93758075 -250.17506519 661.40618789 -253.26953125 665.05078125 C-256.0870304 668.22444282 -259.13900642 671.15896556 -262.1796875 674.1171875 C-264.06383898 675.87753339 -264.06383898 675.87753339 -265 678 C-265.66 678 -266.32 678 -267 678 C-267.22727783 678.55397461 -267.45455566 679.10794922 -267.6887207 679.67871094 C-269.38262124 682.67733434 -271.52222907 684.72794461 -273.98046875 687.140625 C-274.71708488 687.86943878 -274.71708488 687.86943878 -275.46858215 688.61297607 C-277.03685648 690.16350303 -278.61163482 691.70719156 -280.1875 693.25 C-282.2469456 695.27256097 -284.30311366 697.29836916 -286.35546875 699.328125 C-286.85178299 699.81889526 -287.34809723 700.30966553 -287.85945129 700.81530762 C-291.24777011 704.18990481 -294.44271325 707.67841737 -297.54467773 711.31542969 C-299.56684143 713.6561325 -301.73417306 715.83057039 -303.9375 718 C-304.70964844 718.763125 -305.48179687 719.52625 -306.27734375 720.3125 C-307.13005859 721.1478125 -307.13005859 721.1478125 -308 722 C-311.4153472 720.77563025 -313.88835037 719.509317 -316.5625 717.0625 C-317.23925781 716.45019531 -317.91601562 715.83789062 -318.61328125 715.20703125 C-319.40089844 714.47871094 -320.18851563 713.75039063 -321 713 C-322.54854496 711.57385747 -324.09797065 710.14868393 -325.64819336 708.72436523 C-326.69697562 707.75902518 -327.74345793 706.79117894 -328.78735352 705.82055664 C-331.42258308 703.38291489 -334.07784877 701.08725088 -337 699 C-335.60322044 695.81274721 -333.97710155 693.77202992 -331.4453125 691.3984375 C-330.74792969 690.74359375 -330.05054688 690.08875 -329.33203125 689.4140625 C-328.60371094 688.74117187 -327.87539063 688.06828125 -327.125 687.375 C-326.40441406 686.694375 -325.68382812 686.01375 -324.94140625 685.3125 C-321.75351198 682.34182873 -319.00655798 679.80056293 -315 678 C-315 677.34 -315 676.68 -315 676 C-313.7421875 674.765625 -313.7421875 674.765625 -311.875 673.25 C-307.69093813 669.70620382 -303.84827443 665.89841149 -300 662 C-295.855519 657.81100139 -291.69077826 653.7732437 -287.1875 649.96875 C-283.39287509 646.55358758 -279.84391478 642.88354643 -276.2734375 639.23632812 C-273.37473539 636.29460874 -270.43411939 633.47455871 -267.29386902 630.79067993 C-262.92383929 626.98555852 -258.82140987 622.95531509 -254.7355957 618.84912109 C-253.56083176 617.67457619 -253.56083176 617.67457619 -252.36233521 616.4763031 C-249.79777039 613.91104685 -247.23675812 611.34227529 -244.67578125 608.7734375 C-242.88337266 606.97916112 -241.09074114 605.1851074 -239.29789734 603.39126587 C-235.0736001 599.16355226 -230.85153384 594.93362335 -226.63056678 590.70258582 C-221.84107812 585.90191644 -217.04874989 581.10408602 -212.25617468 576.30649829 C-204.05977768 568.10143489 -195.86547285 559.89428715 -187.67359924 551.68470764 C-184.85483485 548.85992491 -182.03562628 546.0356136 -179.21334839 543.21434021 C-177.37383337 541.37400089 -175.53939728 539.52905139 -173.71020508 537.6784668 C-170.4499402 534.38275795 -167.18370732 531.0930362 -163.9152832 527.80541992 C-162.50628456 526.38627871 -161.09907372 524.96536036 -159.69360352 523.54272461 C-157.6610575 521.48605201 -155.62223643 519.43579006 -153.58203125 517.38671875 C-152.63672295 516.42592659 -152.63672295 516.42592659 -151.6723175 515.44572449 C-150.15237114 513.92538518 -148.58073023 512.45703826 -147 511 C-146.34 511 -145.68 511 -145 511 C-144.34 509.68 -143.68 508.36 -143 507 C-143.59167969 506.40832031 -144.18335938 505.81664062 -144.79296875 505.20703125 C-145.58316406 504.41683594 -146.37335938 503.62664063 -147.1875 502.8125 C-148.01121094 501.99652344 -148.83492187 501.18054688 -149.68359375 500.33984375 C-151.00040844 499.00970547 -152.29929577 497.65957962 -153.53515625 496.25390625 C-154.83739337 494.70481188 -154.83739337 494.70481188 -157 493 C-159.760165 493.04979584 -159.760165 493.04979584 -162 494 C-162.33 494.99 -162.66 495.98 -163 497 C-164.56640625 498.56054687 -164.56640625 498.56054687 -166.5625 500.21875 C-170.84036738 503.84960897 -174.92882331 507.6402067 -179 511.5 C-180.48808935 512.90645306 -181.97637559 514.31269784 -183.46484375 515.71875 C-184.21491699 516.42773438 -184.96499023 517.13671875 -185.73779297 517.8671875 C-187.94579521 519.94889564 -190.16068236 522.02294131 -192.37890625 524.09375 C-193.07806152 524.74657959 -193.7772168 525.39940918 -194.49755859 526.07202148 C-195.858369 527.34257242 -197.21936712 528.61292234 -198.58056641 529.88305664 C-202.70398217 533.74426278 -206.73188478 537.674255 -210.6171875 541.77734375 C-212 543 -212 543 -214 543 C-214.33 543.99 -214.66 544.98 -215 546 C-216.56640625 547.54296875 -216.56640625 547.54296875 -218.5625 549.1875 C-222.39385524 552.41826442 -225.88071398 555.86879734 -229.3359375 559.49609375 C-231 561 -231 561 -233 561 C-233 561.66 -233 562.32 -233 563 C-234.46875 564.4453125 -234.46875 564.4453125 -236.5 566.125 C-240.90358911 569.8696013 -244.95451435 573.87550096 -249 578 C-252.8562046 581.9315211 -256.70668886 585.80131407 -260.88671875 589.390625 C-265.77284085 593.59954563 -270.27769548 598.16917483 -274.8125 602.75 C-275.65748047 603.59949219 -276.50246094 604.44898438 -277.37304688 605.32421875 C-278.93061018 606.89044206 -280.48713696 608.45769742 -282.04223633 610.02636719 C-282.68829834 610.67766602 -283.33436035 611.32896484 -284 612 C-284.53971436 612.58168945 -285.07942871 613.16337891 -285.63549805 613.76269531 C-287 615 -287 615 -289 615 C-289 615.66 -289 616.32 -289 617 C-290.6796875 618.65625 -290.6796875 618.65625 -292.875 620.5 C-294.99035504 622.28933258 -297.04019124 624.04019124 -299 626 C-303.39908777 625.93221839 -306.00085169 622.3762315 -308.859375 619.43359375 C-309.40861633 618.88010757 -309.95785767 618.3266214 -310.52374268 617.75636292 C-312.27300464 615.99033441 -314.01153644 614.21415308 -315.75 612.4375 C-316.935505 611.23694559 -318.12169524 610.0370674 -319.30859375 608.83789062 C-322.21373293 605.89970905 -325.10929337 602.95237926 -328 600 C-319.97826745 591.94632176 -311.63348253 584.43498595 -302.78125 577.3125 C-299.75979145 574.80027604 -296.87577314 572.17580369 -294 569.5 C-289.46478983 565.28474307 -284.78443293 561.3157838 -279.96484375 557.4296875 C-274.52859564 552.97468576 -269.2584575 548.32584117 -263.96142578 543.70703125 C-261.99773031 541.99802468 -260.02909541 540.29490251 -258.05859375 538.59375 C-252.64453386 533.91849572 -247.2367369 529.24318052 -241.9375 524.4375 C-236.32785723 519.35636902 -230.56873272 514.45444263 -224.81005859 509.54394531 C-221.89091481 507.05397157 -218.97628687 504.5587387 -216.0625 502.0625 C-215.48862549 501.57104492 -214.91475098 501.07958984 -214.32348633 500.57324219 C-211.28872251 497.97165382 -208.26091989 495.36236625 -205.2421875 492.7421875 C-204.61376953 492.1968335 -203.98535156 491.65147949 -203.33789062 491.08959961 C-202.07979627 489.99587858 -200.82326077 488.90036159 -199.56835938 487.80297852 C-196.47952559 485.1099929 -193.36510542 482.46919133 -190.1640625 479.91015625 C-189.55763916 479.419104 -188.95121582 478.92805176 -188.32641602 478.42211914 C-187.18076651 477.49846401 -186.02540065 476.58668677 -184.85913086 475.68920898 C-182.26420933 473.58378681 -181.07149955 472.5784233 -180.65234375 469.1875 C-180.76707031 468.465625 -180.88179687 467.74375 -181 467 C-181.66 467 -182.32 467 -183 467 C-184.2265625 465.71484375 -184.2265625 465.71484375 -185.625 463.9375 C-188.52355051 460.42798051 -191.7026095 457.52234939 -195.1640625 454.578125 C-197.2145891 452.81554469 -199.12772229 450.95028928 -201 449 C-205.68409355 450.47688771 -208.89881202 453.22748249 -212.5 456.4375 C-213.74959961 457.53040588 -214.9996086 458.62284384 -216.25 459.71484375 C-216.87777344 460.26640137 -217.50554687 460.81795898 -218.15234375 461.38623047 C-220.90632393 463.79159635 -223.70188127 466.14629342 -226.5 468.5 C-231.01781369 472.31276512 -235.5148996 476.14881855 -240 480 C-256.87733726 494.48398546 -256.87733726 494.48398546 -265.375 501.375 C-271.73688922 506.55499978 -277.90312542 511.95450407 -284.09033203 517.34033203 C-292.03787489 524.24743972 -300.03909876 531.07371817 -308.2109375 537.71484375 C-316.27165096 544.31920982 -324.19731049 551.09308753 -332 558 C-337.21015144 553.73714882 -341.9501445 549.12724133 -346.64746094 544.31542969 C-349.60993979 541.30231017 -352.63949812 538.57871846 -356 536 C-357.875 534.5 -357.875 534.5 -359 533 C-358.8019002 530.0029417 -358.04804381 529.04560239 -355.84765625 526.95703125 C-354.92855469 526.24933594 -354.00945312 525.54164063 -353.0625 524.8125 C-349.25838565 521.81338533 -345.57133458 518.77324566 -342 515.5 C-337.7833632 511.66126932 -333.42642736 508.04528727 -328.99609375 504.45703125 C-325.56214175 501.64092199 -322.1822276 498.76737946 -318.8125 495.875 C-317.91917969 495.10917603 -317.91917969 495.10917603 -317.0078125 494.32788086 C-313.10738984 490.97527647 -309.25158322 487.5775325 -305.453125 484.109375 C-304 483 -304 483 -302 483 C-302 482.34 -302 481.68 -302 481 C-300.49212839 479.62508701 -298.91460239 478.32635538 -297.3125 477.0625 C-295.80042969 475.85207031 -295.80042969 475.85207031 -294.2578125 474.6171875 C-293.72188477 474.18889648 -293.18595703 473.76060547 -292.63378906 473.31933594 C-289.94897663 471.15126565 -287.3177618 468.92119554 -284.6875 466.6875 C-284.14859131 466.23076904 -283.60968262 465.77403809 -283.05444336 465.3034668 C-278.38432413 461.33946355 -273.74268871 457.34248191 -269.09936523 453.34716797 C-265.52546141 450.28096916 -261.90975417 447.27638542 -258.25 444.3125 C-253.88424192 440.77010857 -249.71174642 437.06111274 -245.55859375 433.2734375 C-241.92034876 430.0406763 -238.14220237 426.99186896 -234.34765625 423.9453125 C-231.51468109 421.63189633 -231.51468109 421.63189633 -229 419 C-229.25076857 416.55500645 -229.87387602 414.4201292 -230.578125 412.07421875 C-231.44999069 407.78754579 -230.15522849 403.78500189 -227.83203125 400.1953125 C-222.18911787 393.43542141 -215.3098779 387.6061595 -208.82421875 381.67138672 C-207.16784047 380.15377889 -205.52017181 378.62738682 -203.875 377.09765625 C-202.5446875 375.87369141 -202.5446875 375.87369141 -201.1875 374.625 C-200.41792969 373.91601562 -199.64835938 373.20703125 -198.85546875 372.4765625 C-197 371 -197 371 -195 371 C-195 370.34 -195 369.68 -195 369 C-193.42578125 367.4140625 -193.42578125 367.4140625 -191.3125 365.625 C-190.22388672 364.69300781 -190.22388672 364.69300781 -189.11328125 363.7421875 C-187.4447828 362.36667861 -185.72990854 361.0474314 -184 359.75 C-183.01 358.88375 -183.01 358.88375 -182 358 C-181.6709 354.92241347 -181.6709 354.92241347 -183.79296875 352.94921875 C-184.58316406 352.20285156 -185.37335938 351.45648438 -186.1875 350.6875 C-189.72245606 347.27520803 -192.945201 343.84313422 -196 340 C-194.88121617 338.82737096 -193.75476949 337.66204862 -192.625 336.5 C-191.99851562 335.8503125 -191.37203125 335.200625 -190.7265625 334.53125 C-189 333 -189 333 -187 333 C-187 332.34 -187 331.68 -187 331 C-185.70703125 329.6953125 -185.70703125 329.6953125 -183.8125 328.125 C-179.94042713 324.83167112 -176.17094533 321.44843726 -172.4375 318 C-171.87111816 317.47720459 -171.30473633 316.95440918 -170.72119141 316.41577148 C-167.26487606 313.21094365 -163.90205482 309.93583915 -160.6015625 306.5703125 C-158.81730294 304.82086777 -156.95603876 303.19284418 -155.0625 301.5625 C-152.25423653 299.14382221 -149.60029407 296.64100317 -147 294 C-143.78304646 290.7326832 -140.4231814 287.7159449 -136.94921875 284.7265625 C-134.37043443 282.44234874 -131.94779887 280.0278636 -129.54296875 277.5625 C-128.26211699 276.26543492 -126.91917817 275.03003169 -125.5625 273.8125 C-123.56470692 271.89389731 -123.56470692 271.89389731 -124 268 C-125.91842757 265.50982388 -125.91842757 265.50982388 -128.53125 263.04296875 C-129.0005896 262.57691727 -129.4699292 262.11086578 -129.95349121 261.63069153 C-131.45987992 260.14004497 -132.97981762 258.66406269 -134.5 257.1875 C-135.49304908 256.20594904 -136.48524608 255.2235352 -137.4765625 254.24023438 C-141.52398755 250.24860747 -145.58937257 246.33566859 -149.890625 242.61816406 C-153.87589843 239.15356382 -157.62653832 235.50231791 -161.34375 231.75390625 C-161.99831177 231.09792953 -162.65287354 230.44195282 -163.32727051 229.76609802 C-165.38723823 227.70059855 -167.44367366 225.63162405 -169.5 223.5625 C-170.9086205 222.14885566 -172.31747267 220.73544214 -173.7265625 219.32226562 C-177.15372133 215.88416851 -180.57772019 212.44295344 -184 209 C-188.01832915 210.86028771 -190.89228631 213.52715903 -194.0625 216.5625 C-199.05651537 221.26886122 -204.20311668 225.66954846 -209.55859375 229.96484375 C-212.40806526 232.3401632 -214.98866135 234.89194842 -217.5625 237.55859375 C-219.24213865 239.24279663 -221.03387299 240.66303363 -223 242 C-220.82797242 246.88706206 -217.7211389 250.45308449 -213.65625 253.86328125 C-207.49591825 259.20479932 -201.85214696 265.078772 -196.125 270.875 C-193.88047379 273.14609613 -191.63265749 275.41386175 -189.3828125 277.6796875 C-188.87138702 278.19941132 -188.35996155 278.71913513 -187.83303833 279.25460815 C-185.17699878 281.97015109 -185.17699878 281.97015109 -182 284 C-182 287 -182 287 -183.29296875 288.40234375 C-183.91816406 288.90894531 -184.54335938 289.41554688 -185.1875 289.9375 C-189.02922877 293.15937537 -192.75559132 296.47327142 -196.4375 299.875 C-196.99872559 300.39271973 -197.55995117 300.91043945 -198.13818359 301.44384766 C-201.43379902 304.50030376 -204.6528023 307.61453607 -207.8125 310.8125 C-219.75738747 322.86717504 -219.75738747 322.86717504 -224 323 C-226.21794399 321.21770292 -228.06244489 319.49460372 -230.0078125 317.4453125 C-230.57450653 316.86917206 -231.14120056 316.29303162 -231.72506714 315.69943237 C-233.53715592 313.85268368 -235.33136934 311.98966553 -237.125 310.125 C-238.92908391 308.27100263 -240.73663601 306.4204862 -242.5463562 304.57199097 C-243.67225817 303.41962836 -244.79422908 302.26340954 -245.91189575 301.10305786 C-248.66807407 298.17943216 -248.66807407 298.17943216 -252 296 C-251 294 -251 294 -248.72265625 292.65625 C-245.81694639 290.88864457 -243.7858728 288.95047597 -241.4375 286.5 C-235.80750787 280.64558877 -235.80750787 280.64558877 -233 279 C-229.97531647 279.04234557 -228.92842536 280.06268706 -226.640625 282.06640625 C-225.85171875 282.89011719 -225.0628125 283.71382813 -224.25 284.5625 C-223.05117188 285.80193359 -223.05117188 285.80193359 -221.828125 287.06640625 C-221.22484375 287.70449219 -220.6215625 288.34257812 -220 289 C-216.19043411 287.58234188 -213.91900282 286.73139438 -212 283 C-211.69384054 280.51400388 -211.69384054 280.51400388 -213 278 C-215.17775696 275.79949884 -217.57650714 273.92080329 -220 272 C-222.4375 269.75 -222.4375 269.75 -224 268 C-224 267.34 -224 266.68 -224 266 C-224.66 266 -225.32 266 -226 266 C-226 265.34 -226 264.68 -226 264 C-226.66 264 -227.32 264 -228 264 C-229.55078125 262.390625 -229.55078125 262.390625 -231.3125 260.25 C-233.94770015 257.05222903 -236.70518848 254.51789383 -240 252 C-240.88300781 252.83402344 -241.76601563 253.66804688 -242.67578125 254.52734375 C-248.99004193 260.45935098 -255.35330997 266.18635038 -262.125 271.59765625 C-266.34232577 275.12164449 -270.32951504 278.88125109 -274.31835938 282.66015625 C-274.88361328 283.19382812 -275.44886719 283.7275 -276.03125 284.27734375 C-276.53205078 284.75421631 -277.03285156 285.23108887 -277.54882812 285.72241211 C-279 287 -279 287 -282 289 C-281.43413198 292.44374167 -280.49184843 293.76591363 -277.77929688 295.91430664 C-273.91693044 299.1470628 -270.32571024 302.56050218 -266.76757812 306.11889648 C-265.91103764 306.97462549 -265.91103764 306.97462549 -265.0371933 307.84764194 C-263.19991373 309.68684278 -261.36555049 311.52892218 -259.53125 313.37109375 C-258.24252928 314.66168285 -256.95358515 315.9520489 -255.66442871 317.24220276 C-252.29542172 320.61500184 -248.92943045 323.99079462 -245.56408691 327.36724854 C-242.12008377 330.82153745 -238.67319751 334.27294685 -235.2265625 337.72460938 C-228.48157161 344.48027913 -221.73976742 351.23911934 -215 358 C-216.83124244 361.13111321 -218.39964465 363.64414995 -221.1875 365.98046875 C-222.10354004 366.75922363 -222.10354004 366.75922363 -223.03808594 367.55371094 C-223.68551758 368.09286133 -224.33294922 368.63201172 -225 369.1875 C-226.36035918 370.34128854 -227.71972717 371.49624669 -229.078125 372.65234375 C-229.74650391 373.21937012 -230.41488281 373.78639648 -231.10351562 374.37060547 C-233.70722031 376.60761951 -236.22800009 378.92115904 -238.75 381.25 C-243.08207994 385.2237395 -247.56754241 388.94099658 -252.15625 392.61328125 C-254.25734264 394.37669828 -256.24263927 396.14899899 -258.21875 398.04296875 C-259.02421265 398.81072632 -259.02421265 398.81072632 -259.84594727 399.59399414 C-260.88824527 400.59664037 -261.92048838 401.60987045 -262.94116211 402.63452148 C-266.45272696 406.00699071 -266.45272696 406.00699071 -269.140625 405.97265625 C-271.15248271 404.92023488 -272.63304561 403.84524344 -274.3125 402.3125 C-274.99957031 401.68988281 -275.68664062 401.06726563 -276.39453125 400.42578125 C-280.43623746 396.6628134 -284.4757451 392.89753866 -288.50463867 389.12084961 C-292.2563066 385.60796249 -296.04896853 382.16529811 -299.94140625 378.80859375 C-308.35364907 371.41795158 -316.44660993 363.65039654 -324.62329102 356.00170898 C-328.80880658 352.0932437 -333.04293037 348.24585133 -337.31640625 344.43359375 C-341.56803952 340.57803695 -345.74189189 336.63866356 -349.91210938 332.6953125 C-350.52763672 332.11652344 -351.14316406 331.53773438 -351.77734375 330.94140625 C-352.32640381 330.42263916 -352.87546387 329.90387207 -353.44116211 329.36938477 C-355.16372997 327.79522684 -355.16372997 327.79522684 -358 326 C-358 325.34 -358 324.68 -358 324 C-358.66 324 -359.32 324 -360 324 C-360 323.34 -360 322.68 -360 322 C-360.8353125 321.6596875 -360.8353125 321.6596875 -361.6875 321.3125 C-364.6865221 319.61035232 -366.64499245 317.52322238 -369 315 C-369.51046875 314.45988281 -370.0209375 313.91976563 -370.546875 313.36328125 C-376.25287393 307.07820817 -378.97134763 300.50975463 -379 292 C-378.0169037 279.6471813 -369.44140001 271.97653796 -360.57128906 264.33007812 C-357.24299318 261.51271393 -353.84650881 258.78021537 -350.44921875 256.046875 C-348.33591462 254.28073247 -346.41058009 252.47865302 -344.5 250.5 C-341.81032435 247.71494578 -338.96031728 245.29501384 -335.9375 242.875 C-331.4396397 239.25943603 -327.19912231 235.45719521 -323 231.5 C-318.04293536 226.83266886 -312.96169187 222.43418075 -307.64453125 218.17578125 C-304.84160752 215.869683 -302.16996725 213.45848469 -299.5 211 C-295.94329756 207.72581577 -292.32838189 204.59357567 -288.5625 201.5625 C-283.43604516 197.4247186 -278.60162576 193.03438248 -273.7734375 188.55859375 C-270.90969536 185.91669079 -267.99222257 183.35057594 -265.046875 180.80078125 C-262.55925274 178.61224335 -260.12646548 176.36760809 -257.6875 174.125 C-254.06476095 170.81663086 -250.38307109 167.63987642 -246.5625 164.5625 C-241.43252873 160.42188033 -236.595352 156.0273268 -231.76171875 151.55078125 C-227.20038758 147.3378403 -222.50977708 143.28567106 -217.78515625 139.2578125 C-211.24046748 133.67462294 -204.77825765 128.03322652 -198.43359375 122.22265625 C-193.962935 118.13950243 -189.38858111 114.18157621 -184.78125 110.25390625 C-183.58319225 109.2319362 -182.3852799 108.20979569 -181.1875 107.1875 C-180.58147949 106.67034424 -179.97545898 106.15318848 -179.35107422 105.62036133 C-175.60967738 102.4152347 -171.93901522 99.14806271 -168.3125 95.8125 C-164.90216251 92.67974812 -161.43243506 89.69982916 -157.8125 86.8125 C-152.23993668 82.32415501 -147.09446993 77.43846444 -141.90795898 72.51342773 C-137.35887019 68.21493579 -132.67205278 64.20298495 -127.7734375 60.3046875 C-124.39154154 57.49437959 -121.20003836 54.51385431 -118 51.5 C-113.09043816 46.87701169 -108.05520985 42.53398444 -102.7890625 38.31640625 C-98.36756016 34.64420613 -94.20134497 30.70481871 -90 26.78515625 C-87.04987728 24.03458984 -84.03644395 21.36681419 -80.98046875 18.734375 C-77.62709202 15.79769005 -74.37002102 12.7533167 -71.1015625 9.72265625 C-69 8 -69 8 -67 8 C-67 7.34 -67 6.68 -67 6 C-48.08859279 -12.30020203 -21.86375201 -16.20398642 0 0 Z M-145.1875 176.5625 C-145.77394287 177.110271 -146.36038574 177.65804199 -146.96459961 178.22241211 C-150.59727527 181.62958705 -154.1458507 185.10770843 -157.6328125 188.6640625 C-159.29941931 190.29257544 -161.07393202 191.69027378 -163 193 C-161.4181616 196.88388656 -158.77190147 199.50166062 -155.8359375 202.39453125 C-155.32503571 202.90497482 -154.81413391 203.4154184 -154.28775024 203.94132996 C-153.20575408 205.02031057 -152.12133401 206.09686524 -151.03466797 207.17114258 C-149.39631724 208.79141795 -147.76593063 210.41936932 -146.13671875 212.04882812 C-141.19963967 216.96862471 -136.21258367 221.77087559 -130.91308594 226.30297852 C-127.07784246 229.70506853 -123.53052034 233.40852936 -119.9375 237.0625 C-112.33992565 244.9479633 -112.33992565 244.9479633 -104 252 C-99.85648261 251.54879403 -98.05910652 249.33619191 -95.25 246.375 C-89.83219983 240.78939186 -84.26411843 235.62220192 -78 231 C-78.56578162 227.55723732 -79.50505896 226.23885816 -82.21875 224.09375 C-86.15867437 220.79994514 -89.79368786 217.29887363 -93.40625 213.65625 C-93.97939941 213.0797168 -94.55254883 212.50318359 -95.14306641 211.90917969 C-97.53204246 209.50238038 -99.9160081 207.09064437 -102.30029297 204.67919922 C-111.00425838 195.87147545 -111.00425838 195.87147545 -120.19824219 187.58349609 C-124.3193798 183.96158572 -128.06722272 179.92830904 -131.8828125 175.99023438 C-132.51703125 175.34505859 -133.15125 174.69988281 -133.8046875 174.03515625 C-134.37171387 173.4512915 -134.93874023 172.86742676 -135.52294922 172.26586914 C-139.37412098 168.96531946 -142.35984493 173.88685663 -145.1875 176.5625 Z M-18 236.8125 C-25.63436981 244.75254283 -25.63436981 244.75254283 -29.68359375 248.1953125 C-35.81364353 253.45937112 -41.38672703 259.31964318 -47.0625 265.0625 C-49.34203751 267.36889698 -51.6240036 269.67281531 -53.91015625 271.97265625 C-54.4488736 272.51532135 -54.98759094 273.05798645 -55.54263306 273.61709595 C-58.36667371 276.44069777 -61.23115977 279.13234914 -64.30859375 281.68359375 C-65.19675781 282.44800781 -66.08492188 283.21242188 -67 284 C-67 284.66 -67 285.32 -67 286 C-67.58411148 286.2587944 -68.16822296 286.51758881 -68.77003479 286.78422546 C-71.17379288 288.09475169 -72.75343374 289.51248722 -74.67944336 291.45239258 C-75.38374985 292.15685013 -76.08805634 292.86130768 -76.81370544 293.58711243 C-77.94039391 294.72928474 -77.94039391 294.72928474 -79.08984375 295.89453125 C-80.26215294 297.07108528 -80.26215294 297.07108528 -81.45814514 298.27140808 C-83.95599818 300.78044849 -86.44682109 303.29633977 -88.9375 305.8125 C-90.61086676 307.49590145 -92.28468979 309.17884948 -93.95898438 310.86132812 C-97.03921921 313.95788824 -100.11681214 317.05702118 -103.19116211 320.15942383 C-103.85211884 320.82551666 -104.51307556 321.4916095 -105.19406128 322.17788696 C-106.30550998 323.29929 -107.41521674 324.42242661 -108.52200317 325.5484314 C-110.54440386 327.59699897 -112.53263594 329.4142724 -114.8125 331.1875 C-115.534375 331.785625 -116.25625 332.38375 -117 333 C-117 333.66 -117 334.32 -117 335 C-117.59044601 335.26480164 -118.18089203 335.52960327 -118.78923035 335.8024292 C-121.07494654 337.04059843 -122.55227634 338.31669396 -124.37231445 340.16113281 C-125.0101033 340.80230042 -125.64789215 341.44346802 -126.30500793 342.10406494 C-126.98423813 342.79675476 -127.66346832 343.48944458 -128.36328125 344.203125 C-129.07348923 344.91853455 -129.7836972 345.63394409 -130.51542664 346.37103271 C-132.78591925 348.65932426 -135.04963239 350.95416983 -137.3125 353.25 C-139.56546985 355.53071282 -141.81992057 357.8099091 -144.07743835 360.08612061 C-145.48051844 361.50131798 -146.88091858 362.91917926 -148.27815247 364.34014893 C-151.94296621 368.04194182 -155.67269102 371.5078225 -159.74162292 374.76409912 C-160.36451958 375.37587006 -160.36451958 375.37587006 -161 376 C-161 376.66 -161 377.32 -161 378 C-161.5662207 378.24024902 -162.13244141 378.48049805 -162.71582031 378.72802734 C-165.47040587 380.26195111 -167.33249671 382.10726018 -169.546875 384.3515625 C-170.39121094 385.20234375 -171.23554688 386.053125 -172.10546875 386.9296875 C-172.97816406 387.81914062 -173.85085938 388.70859375 -174.75 389.625 C-175.63816406 390.5221875 -176.52632812 391.419375 -177.44140625 392.34375 C-179.63216969 394.55807004 -181.81812763 396.77692435 -184 399 C-183.08047306 400.26922755 -182.15476195 401.5339759 -181.2265625 402.796875 C-180.71174316 403.50166992 -180.19692383 404.20646484 -179.66650391 404.93261719 C-177.48630989 407.63725869 -174.99305817 409.73376751 -172.3359375 411.953125 C-169.42037695 414.50789712 -166.71912146 417.23928748 -164 420 C-160.11514753 423.93438721 -156.1711879 427.6897853 -151.94921875 431.265625 C-148.76089974 434.10252608 -145.83433122 437.19727456 -142.8828125 440.27734375 C-141.17939784 442.2250104 -141.17939784 442.2250104 -139 442 C-139 442.66 -139 443.32 -139 444 C-137.54995757 445.46641754 -137.54995757 445.46641754 -135.625 447 C-132.25204852 449.86045355 -129.10326523 452.84869661 -126 456 C-123.08373397 458.95183025 -120.15394165 461.80388859 -117 464.5 C-112.93216003 467.97734707 -109.21996296 471.76502211 -105.4609375 475.5703125 C-102.64005615 478.35537313 -99.70245528 480.95612181 -96.6875 483.52734375 C-95.27139667 484.76315614 -93.93664801 486.09133493 -92.625 487.4375 C-91.13544499 489.23103624 -91.13544499 489.23103624 -89 489 C-88.74605469 489.59167969 -88.49210937 490.18335938 -88.23046875 490.79296875 C-86.86446788 493.2430973 -85.47063789 494.5359582 -83.3125 496.3125 C-79.80251704 499.26625615 -76.59503358 502.38199935 -73.4453125 505.71484375 C-72.07324261 507.2214964 -72.07324261 507.2214964 -70 507 C-70 507.66 -70 508.32 -70 509 C-68.56615249 510.24184201 -67.07322975 511.41542288 -65.5625 512.5625 C-59.31540147 517.53913937 -53.76997451 523.08712836 -48.19165039 528.79516602 C-44.794535 532.25852376 -41.36519248 535.67753898 -37.79296875 538.9609375 C-37.18348389 539.52345215 -36.57399902 540.0859668 -35.94604492 540.66552734 C-33.60967783 542.26765788 -31.80838533 542.73107548 -29 543 C-26.81073367 541.75339633 -26.81073367 541.75339633 -24.9375 539.8125 C-24.25558594 539.16539062 -23.57367188 538.51828125 -22.87109375 537.8515625 C-21.94490234 536.93503906 -21.94490234 536.93503906 -21 536 C-20.175 535.236875 -19.35 534.47375 -18.5 533.6875 C-16.77854539 532.12716339 -16.77854539 532.12716339 -17 530 C-16.44272217 529.76836655 -15.88544434 529.53673309 -15.3112793 529.29808044 C-12.38566753 527.65497334 -10.38331855 525.61482514 -8.01953125 523.23071289 C-7.53769379 522.74756119 -7.05585632 522.26440948 -6.55941772 521.76661682 C-4.97245843 520.17318246 -3.39259683 518.57289328 -1.8125 516.97265625 C-0.70729836 515.86118065 0.39842238 514.750221 1.50463867 513.63975525 C4.4138999 510.71720236 7.31754242 507.78913584 10.21960449 504.85943604 C14.86320492 500.17269485 19.51351658 495.49263732 24.16714478 490.81585503 C25.78922505 489.18357752 27.40783325 487.54791493 29.02612305 485.91188049 C30.02380839 484.90736427 31.02160523 483.90295876 32.01953125 482.89868164 C32.88682861 482.02313126 33.75412598 481.14758087 34.64770508 480.24549866 C37 478 37 478 39.3112793 476.3188324 C39.86855713 475.88361771 40.42583496 475.44840302 41 475 C41 474.34 41 473.68 41 473 C41.66 473 42.32 473 43 473 C43 472.34 43 471.68 43 471 C43.66 471 44.32 471 45 471 C46.56648858 469.41262601 46.56648858 469.41262601 48.1875 467.375 C51.1100663 463.91212733 54.15830902 461.02489092 57.71484375 458.2265625 C58.13894531 457.82179688 58.56304688 457.41703125 59 457 C59 456.34 59 455.68 59 455 C59.66 455 60.32 455 61 455 C61 454.34 61 453.68 61 453 C61.88219884 452.60536041 61.88219884 452.60536041 62.78221989 452.2027483 C65.1044938 450.94333084 66.62394643 449.62247888 68.48448181 447.75602722 C69.15588699 447.08737137 69.82729218 446.41871552 70.51904297 445.72979736 C71.24486572 444.99678406 71.97068848 444.26377075 72.71850586 443.50854492 C73.87776329 442.34972557 73.87776329 442.34972557 75.06044006 441.16749573 C77.61667649 438.609865 80.16575105 436.04521781 82.71484375 433.48046875 C84.4903315 431.70124946 86.26626238 429.92247228 88.0426178 428.14411926 C92.24410189 423.93577578 96.44111202 419.72300483 100.63597447 415.50806361 C105.85892869 410.26064308 111.08870728 405.02004078 116.31835938 399.77929688 C123.99783614 392.08222918 131.6738208 384.38169929 139.34542847 376.67678833 C140.01965347 375.999673 140.69387848 375.32255768 141.38853455 374.62492371 C142.01036558 373.99642706 142.63219662 373.36793041 143.27287102 372.72038841 C144.36099505 371.63651107 145.46451763 370.56767383 146.58877754 369.52132607 C149.61541934 366.73182888 149.61541934 366.73182888 150.1875 362.625 C147.93479666 355.74832666 142.78508102 351.71498236 137.40234375 347.1484375 C134.31091641 344.38374638 131.41320785 341.45031081 128.5 338.5 C124.40562663 334.35827594 120.26651442 330.37722923 115.82421875 326.60546875 C113.79194494 324.81689372 111.89942105 322.92881247 110 321 C107.54087905 318.50290035 105.04906214 316.13941858 102.375 313.875 C97.71454442 309.87769225 93.46283005 305.48879557 89.14746094 301.12792969 C85.48636984 297.44315498 81.75473931 293.92848138 77.7890625 290.5703125 C75.05498094 288.17052913 72.54736728 285.55590322 69.99609375 282.96484375 C68.07892823 281.07769256 66.10424678 279.31314625 64.0625 277.5625 C60.2249084 274.26668603 56.69946374 270.71669191 53.1484375 267.1171875 C51.3409448 265.33598561 49.51228389 263.68274295 47.5625 262.0625 C44.55405696 259.55546413 41.81467858 256.84824173 39.0625 254.0625 C35.62116525 250.58510336 32.12590872 247.28954699 28.3984375 244.125 C26.35286729 242.31263812 24.38066817 240.45905106 22.4140625 238.5625 C21.76139404 237.93762695 21.10872559 237.31275391 20.4362793 236.66894531 C19.13079921 235.41560789 17.83242066 234.15481955 16.54223633 232.88574219 C11.83278627 228.38476246 7.65661781 225.54460265 1.0625 224.5625 C-7.27881161 225.75411594 -12.45936015 230.95262407 -18 236.8125 Z M232 475 C232 475.66 232 476.32 232 477 C231.01 477.495 231.01 477.495 230 478 C230.48210938 478.53109375 230.96421875 479.0621875 231.4609375 479.609375 C232.40839844 480.66898438 232.40839844 480.66898438 233.375 481.75 C234.00148438 482.44609375 234.62796875 483.1421875 235.2734375 483.859375 C237 486 237 486 239 490 C236.36 492.64 233.72 495.28 231 498 C226 496 226 496 223.5 493.3125 C221.245414 490.72957995 221.245414 490.72957995 218.375 490.875 C215.31429012 492.32480994 214.4595314 494.00411976 213 497 C214.1282554 498.1282554 215.25687314 499.25614956 216.38671875 500.3828125 C217.5402876 501.53917449 218.68809309 502.70129744 219.83203125 503.8671875 C223.23579883 507.3179499 226.68251756 510.71818189 230.25 514 C230.87390625 514.5775 231.4978125 515.155 232.140625 515.75 C234.17985124 517.37194319 234.17985124 517.37194319 238 517 C240.75910786 515.41856013 242.98790279 513.46172787 245 511 C245.16666667 508 245.16666667 508 245 505 C246.45341114 502.71009324 248.11561762 500.9786015 250 499 C250.7425 499.53625 251.485 500.0725 252.25 500.625 C253.1575 501.07875 254.065 501.5325 255 502 C257.30287793 501.30859649 257.30287793 501.30859649 259 500 C259.40597551 496.18668745 259.40597551 496.18668745 257.75 494.37182617 C257.1725 493.85080322 256.595 493.32978027 256 492.79296875 C255.36360596 492.20918457 254.72721191 491.62540039 254.0715332 491.02392578 C253.38792725 490.41790527 252.70432129 489.81188477 252 489.1875 C251.31317139 488.56601074 250.62634277 487.94452148 249.91870117 487.30419922 C248.56114444 486.07852677 247.19950469 484.85735904 245.83349609 483.64111328 C244.32462864 482.29056641 242.84039526 480.91254844 241.36328125 479.52734375 C240.68652344 478.89957031 240.00976562 478.27179688 239.3125 477.625 C238.75175781 477.10164063 238.19101562 476.57828125 237.61328125 476.0390625 C235.75934639 474.63901495 235.75934639 474.63901495 232 475 Z M109 496 C104.93753012 498.20263178 102.01209712 500.80438937 98.8125 504.125 C94.19354839 508.90322581 94.19354839 508.90322581 92 510 C92 510.66 92 511.32 92 512 C90.02 512.99 90.02 512.99 88 514 C88 514.66 88 515.32 88 516 C87.14148438 516.36738281 87.14148438 516.36738281 86.265625 516.7421875 C83.61975598 518.21110099 81.85146861 519.95348244 79.75 522.125 C79.04359375 522.84945312 78.3371875 523.57390625 77.609375 524.3203125 C77.07828125 524.87460937 76.5471875 525.42890625 76 526 C79.92168519 530.93011852 84.23872953 535.10109813 88.91162109 539.31811523 C96.55834468 546.30781349 103.78446168 553.73708746 111.06567383 561.10302734 C115.91404736 565.99623182 120.78569264 570.77793622 126.03149414 575.24975586 C131.06449542 579.72471384 135.67263722 584.6812734 140.37304688 589.5 C141.59024414 590.73363281 141.59024414 590.73363281 142.83203125 591.9921875 C143.56139893 592.73839355 144.2907666 593.48459961 145.04223633 594.25341797 C146.97845457 596.21258527 146.97845457 596.21258527 150 597 C150.88300781 596.16597656 151.76601563 595.33195313 152.67578125 594.47265625 C159.12081051 588.41746914 165.6092835 582.54389278 172.51171875 577.01171875 C176.09940038 574.11115982 179.55613939 571.06888439 183 568 C180.37159758 563.81402577 177.71846873 560.32705097 174 557 C173.34 557 172.68 557 172 557 C171.773125 556.4225 171.54625 555.845 171.3125 555.25 C169.65238361 552.40408619 167.60812043 551.00158079 165 549 C163.3186652 547.34813171 161.65372212 545.67951145 160 544 C159.18813232 543.18289551 158.37626465 542.36579102 157.53979492 541.52392578 C156.69521729 540.6729834 155.85063965 539.82204102 154.98046875 538.9453125 C153.54165542 537.49911726 152.10235519 536.05340855 150.6628418 534.60791016 C149.68374233 533.623788 148.70554305 532.63876938 147.72827148 531.65283203 C142.57722104 526.45751814 137.39145267 521.37235097 131.82983398 516.61376953 C128.08478188 513.31092838 124.66517528 509.6668072 121.20117188 506.07421875 C117.39765494 502.19796865 113.5035009 499.04058022 109 496 Z M-46 666 C-51.79796705 670.26280793 -56.9592597 674.82344778 -61.98046875 679.9765625 C-64.18281538 682.18316899 -66.49635266 684.1424552 -69 686 C-68.43685945 689.52343341 -67.3869187 690.85860161 -64.625 693.0625 C-61.05193879 696.040051 -57.76419355 699.18579791 -54.5 702.5 C-51.48851404 705.55393006 -48.46444094 708.54078336 -45.1875 711.3125 C-40.5803037 715.23574139 -36.39961462 719.57509634 -32.14672852 723.87280273 C-28.49576953 727.54738934 -24.77603131 731.05453844 -20.8203125 734.40234375 C-17.37714974 737.42434712 -14.19946046 740.72395671 -11 744 C-9.91481889 743.08552154 -8.83195262 742.16829593 -7.75 741.25 C-7.14671875 740.73953125 -6.5434375 740.2290625 -5.921875 739.703125 C-3.8631357 737.87871375 -1.92758032 735.96169678 0 734 C-4.17478847 729.73823677 -8.3327897 725.49812953 -12.875 721.625 C-16.37600051 718.61909048 -19.66999634 715.44231843 -22.9375 712.1875 C-23.4226709 711.70684082 -23.9078418 711.22618164 -24.40771484 710.73095703 C-27.87616642 707.24766716 -27.87616642 707.24766716 -29 705 C-28.34 705 -27.68 705 -27 705 C-25.26306842 703.24478052 -25.26306842 703.24478052 -23.5 701.0625 C-20.20241692 697.10120846 -20.20241692 697.10120846 -18 696 C-17.52691337 693.73377665 -17.52691337 693.73377665 -18 691 C-19.83317332 688.93545529 -21.53677344 687.26240398 -23.625 685.5 C-24.14707031 685.03980469 -24.66914063 684.57960938 -25.20703125 684.10546875 C-27.84413354 681.79393465 -30.53676538 679.55198628 -33.23828125 677.31640625 C-35.98846693 675.00967342 -38.46338017 672.53661983 -41 670 C-42.64864545 668.64444707 -44.31003995 667.30368347 -46 666 Z " fill="#f1f5f6" transform="translate(512,102)"/>
<path d="M0 0 C4.67183606 2.8248311 7.47449911 5.76939893 11 10 C12.93581437 11.49899165 14.89940858 12.72987495 17 14 C15.35890201 19.3044522 11.9885597 23.32032553 8.6875 27.6875 C7.40936392 29.39914821 6.13203843 31.11140197 4.85546875 32.82421875 C4.20884277 33.68966309 3.5622168 34.55510742 2.89599609 35.44677734 C0.05742987 39.26930188 -2.72277044 43.13280324 -5.5 47 C-9.95947299 53.19707115 -14.46279644 59.35962614 -19 65.5 C-28.76311347 78.72357684 -38.36548364 92.04768967 -47.76513672 105.53222656 C-52.19125639 111.8721114 -56.69533397 118.15144586 -61.23730469 124.40869141 C-64.95324212 129.53314391 -68.61354537 134.69390802 -72.25 139.875 C-76.42562437 145.82003753 -80.69864747 151.66971466 -85.0859375 157.4609375 C-87.451915 160.59947908 -89.73638406 163.78712577 -92 167 C-96.91865636 162.82983482 -101.72980057 158.55611949 -106.515625 154.234375 C-112.26422612 149.06424946 -118.12141091 144.02129484 -124 139 C-120.09739439 133.51525698 -115.82223964 128.54992295 -111.23876953 123.63354492 C-108.21408949 120.37200462 -105.34676606 117.03523912 -102.5625 113.5625 C-98.71889943 108.78378372 -94.63039836 104.30842313 -90.44165039 99.83618164 C-87.32446055 96.48900673 -84.36426202 93.06994977 -81.5 89.5 C-77.67877028 84.73730789 -73.60803168 80.28401882 -69.43701172 75.83154297 C-66.36006386 72.52804738 -63.4433493 69.15579447 -60.625 65.625 C-55.80560278 59.61834251 -50.53469244 54.07364398 -45.2578125 48.47265625 C-38.71672556 41.57048413 -38.71672556 41.57048413 -33 34 C-32.34 34 -31.68 34 -31 34 C-30.72760498 33.40469482 -30.45520996 32.80938965 -30.17456055 32.19604492 C-29.02967324 30.05547928 -27.8825856 28.60280279 -26.20703125 26.86328125 C-25.66272461 26.29037354 -25.11841797 25.71746582 -24.55761719 25.12719727 C-23.98172852 24.52834717 -23.40583984 23.92949707 -22.8125 23.3125 C-19.06519046 19.36615941 -15.46244139 15.46726597 -12.25 11.0625 C-8.84624941 6.48415538 -4.63668153 3.26985931 0 0 Z " fill="#f1f5f6" transform="translate(400,661)"/>
<path d="M0 0 C2.70326061 1.40506435 5.1105083 3.13592495 7.5625 4.9375 C8.24924805 5.42750488 8.93599609 5.91750977 9.64355469 6.42236328 C11.06505446 7.43804675 12.48285723 8.45892367 13.89697266 9.48486328 C15.91861721 10.94136736 17.95948462 12.36437167 20.01171875 13.77734375 C21.25803978 14.642902 22.50414367 15.50877301 23.75 16.375 C24.32177979 16.76679443 24.89355957 17.15858887 25.48266602 17.56225586 C30.51005677 21.1122894 34.32829709 24.97845789 36 31 C36.277117 34.04679707 36.28511712 37.06740946 36.25 40.125 C36.23876099 41.39380005 36.23876099 41.39380005 36.22729492 42.68823242 C35.94069754 59.41174981 35.94069754 59.41174981 30.66577148 65.40014648 C27.24995428 68.68079285 23.29167078 71.23494374 19.375 73.875 C17.57333168 75.10416952 15.77254312 76.3346296 13.97265625 77.56640625 C13.11172363 78.15437988 12.25079102 78.74235352 11.36376953 79.34814453 C9.38048483 80.73410862 7.45810765 82.15513505 5.55859375 83.65234375 C4.65238281 84.36519531 3.74617188 85.07804688 2.8125 85.8125 C2.07644531 86.41707031 1.34039062 87.02164063 0.58203125 87.64453125 C-3.18490605 89.62203086 -6.75400138 90.14737772 -11 90 C-13.82146728 89.02834522 -16.06507109 87.51106903 -18.484375 85.78515625 C-19.1478595 85.33659775 -19.81134399 84.88803925 -20.49493408 84.42588806 C-21.88758993 83.47645164 -23.27221492 82.51513761 -24.64892578 81.54272461 C-26.73983023 80.06966469 -28.85638254 78.64146485 -30.98046875 77.21679688 C-45.29227227 67.46381031 -45.29227227 67.46381031 -47 61 C-47.54921799 56.63676815 -47.67963248 52.35892097 -47.59692383 47.96362305 C-47.56249543 45.93723123 -47.57632823 43.91518786 -47.59570312 41.88867188 C-47.53329853 33.53061628 -47.30408931 28.36382556 -41.29370117 22.27001953 C-36.38391696 17.74598203 -30.91280018 14.01755202 -25.375 10.3125 C-24.55515625 9.75755859 -23.7353125 9.20261719 -22.890625 8.63085938 C-21.30810118 7.56100204 -19.72324893 6.49457829 -18.13574219 5.43212891 C-16.81385587 4.54573371 -15.49594269 3.65334198 -14.18457031 2.75146484 C-9.06743241 -0.75098087 -6.11282345 -1.40676948 0 0 Z " fill="#f1f5f6" transform="translate(165,489)"/>
<path d="M0 0 C3.00455734 1.51212848 5.59133336 3.38673955 8.25 5.4375 C8.9836377 5.98229004 9.71727539 6.52708008 10.47314453 7.08837891 C11.95617165 8.19215493 13.43365468 9.30342218 14.90527344 10.42236328 C16.80099792 11.85012221 18.71982315 13.22930659 20.6640625 14.58984375 C22.25347656 15.72099609 22.25347656 15.72099609 23.875 16.875 C24.80054688 17.53242188 25.72609375 18.18984375 26.6796875 18.8671875 C30.38325088 22.27147303 31.84359134 25.6066871 32.40405273 30.59936523 C32.46208317 38.37688298 32.46208317 38.37688298 32.44604492 41.16723633 C32.43753511 43.4281728 32.46633087 45.68657815 32.49804688 47.94726562 C32.49965937 49.40104092 32.49908044 50.85482063 32.49609375 52.30859375 C32.49794678 53.61626709 32.4997998 54.92394043 32.50170898 56.27124023 C31.75612331 61.81252007 29.73312541 65.57690582 25.3359375 69.1875 C24.35882812 69.785625 23.38171875 70.38375 22.375 71 C20.7971875 71.99193359 20.7971875 71.99193359 19.1875 73.00390625 C18.135625 73.66261719 17.08375 74.32132812 16 75 C14.11633304 76.30003079 12.24052502 77.61156725 10.375 78.9375 C4.77962695 82.91220675 0.92452166 83.98724361 -6 83 C-9.20226977 81.54134921 -11.81485112 79.55582621 -14.5625 77.375 C-16.03706701 76.2647035 -17.51232058 75.15531819 -18.98828125 74.046875 C-19.68131348 73.51513672 -20.3743457 72.98339844 -21.08837891 72.43554688 C-23.98752575 70.25840978 -27.0442829 68.3573984 -30.140625 66.4765625 C-33.40100006 63.88744113 -36.46606722 61.20884299 -37.46713257 57.06750488 C-37.6421608 54.86240323 -37.66735412 52.70780269 -37.62890625 50.49609375 C-37.63131821 49.69518814 -37.63373016 48.89428253 -37.63621521 48.06910706 C-37.63523994 46.38399276 -37.62192278 44.69884515 -37.59692383 43.01391602 C-37.56254823 40.44110986 -37.57629519 37.87173026 -37.59570312 35.29882812 C-37.58880556 33.65623545 -37.57913397 32.01365159 -37.56640625 30.37109375 C-37.57136612 29.60639267 -37.57632599 28.84169159 -37.58143616 28.05381775 C-37.47120375 23.03496601 -36.60405159 20.48955877 -33 17 C-29.62062471 14.25716812 -26.05019706 11.81350647 -22.45654297 9.35961914 C-20.755413 8.19121786 -19.07547236 6.99602573 -17.39453125 5.79882812 C-6.71165901 -1.53691351 -6.71165901 -1.53691351 0 0 Z M-5.3125 15.625 C-8.68901309 17.35251833 -11.15927826 19.48959474 -14 22 C-13.70514788 25.34165731 -13.31752496 26.69577755 -10.85546875 29.0546875 C-9.97503906 29.65539062 -9.09460938 30.25609375 -8.1875 30.875 C-7.31480469 31.49117188 -6.44210937 32.10734375 -5.54296875 32.7421875 C-3.1623738 34.1894683 -3.1623738 34.1894683 -0.9375 33.83984375 C1.20741489 32.91009233 3.1869887 31.89981735 5.1875 30.6875 C5.88230469 30.27886719 6.57710937 29.87023437 7.29296875 29.44921875 C9.32506306 27.72403114 9.62925496 26.59521528 10 24 C8.40012144 22.68227638 6.79494034 21.37098863 5.1875 20.0625 C4.29417969 19.33160156 3.40085937 18.60070312 2.48046875 17.84765625 C-0.32344097 15.75907468 -1.8466182 14.68827519 -5.3125 15.625 Z " fill="#f1f5f6" transform="translate(856,430)"/>
<path d="M0 0 C0.33 0 0.66 0 1 0 C1 1.65 1 3.3 1 5 C0.67 5 0.34 5 0 5 C0 3.35 0 1.7 0 0 Z " fill="#f1f5f6" transform="translate(817,475)"/>
<path d="M0 0 C0.66 0.66 1.32 1.32 2 2 C1.34 2 0.68 2 0 2 C0 1.34 0 0.68 0 0 Z " fill="#f1f5f6" transform="translate(360,698)"/>
<path d="" fill="#f1f5f6" transform="translate(0,0)"/>
<path d="" fill="#f1f5f6" transform="translate(0,0)"/>
<path d="M0 0 C0.66 0.66 1.32 1.32 2 2 C1.34 2 0.68 2 0 2 C0 1.34 0 0.68 0 0 Z " fill="#000100" transform="translate(848,290)"/>
<path d="M0 0 C0.99 0.495 0.99 0.495 2 1 C1.01 1.495 1.01 1.495 0 2 C0 1.34 0 0.68 0 0 Z " fill="#010200" transform="translate(256,272)"/>
<path d="" fill="#f1f5f6" transform="translate(0,0)"/>
<path d="" fill="#010000" transform="translate(0,0)"/>
<path d="M0 0 C2 1 2 1 2 1 Z " fill="#f1f5f6" transform="translate(561,675)"/>
<path d="" fill="#f1f5f6" transform="translate(0,0)"/>
<path d="" fill="#010000" transform="translate(0,0)"/>
<path d="M0 0 C2 1 2 1 2 1 Z " fill="#f1f5f6" transform="translate(194,594)"/>
<path d="M0 0 C2 1 2 1 2 1 Z " fill="#f1f5f6" transform="translate(729,504)"/>
<path d="M0 0 C2 1 2 1 2 1 Z " fill="#040303" transform="translate(153,488)"/>
<path d="M0 0 C2 1 2 1 2 1 Z " fill="#f1f5f6" transform="translate(700,432)"/>
<path d="M0 0 C2 1 2 1 2 1 Z " fill="#070607" transform="translate(852,428)"/>
<path d="M0 0 C2 1 2 1 2 1 Z " fill="#070606" transform="translate(849,428)"/>
<path d="" fill="#f1f5f6" transform="translate(0,0)"/>
<path d="" fill="#030403" transform="translate(0,0)"/>
<path d="M0 0 C2 1 2 1 2 1 Z " fill="#f1f5f6" transform="translate(494,232)"/>
<path d="" fill="#000101" transform="translate(0,0)"/>
<path d="" fill="#0B0B0B" transform="translate(0,0)"/>
<path d="" fill="#0D0C0D" transform="translate(0,0)"/>
<path d="" fill="#0D0D0C" transform="translate(0,0)"/>
<path d="" fill="#0D0C0D" transform="translate(0,0)"/>
<path d="" fill="#040403" transform="translate(0,0)"/>
<path d="" fill="#080605" transform="translate(0,0)"/>
<path d="" fill="#070706" transform="translate(0,0)"/>
<path d="" fill="#010000" transform="translate(0,0)"/>
<path d="" fill="#f1f5f6" transform="translate(0,0)"/>
<path d="" fill="#f1f5f6" transform="translate(0,0)"/>
<path d="" fill="#f1f5f6" transform="translate(0,0)"/>
<path d="" fill="#0F0F0E" transform="translate(0,0)"/>
<path d="" fill="#f1f5f6" transform="translate(0,0)"/>
<path d="" fill="#f1f5f6" transform="translate(0,0)"/>
<path d="" fill="#030204" transform="translate(0,0)"/>
<path d="" fill="#f1f5f6" transform="translate(0,0)"/>
<path d="" fill="#f1f5f6" transform="translate(0,0)"/>
<path d="" fill="#050305" transform="translate(0,0)"/>
<path d="" fill="#f1f5f6" transform="translate(0,0)"/>
<path d="" fill="#f1f5f6" transform="translate(0,0)"/>
<path d="" fill="#f1f5f6" transform="translate(0,0)"/>
<path d="" fill="#f1f5f6" transform="translate(0,0)"/>
<path d="" fill="#000200" transform="translate(0,0)"/>
<path d="" fill="#010000" transform="translate(0,0)"/>
<path d="" fill="#f1f5f6" transform="translate(0,0)"/>
<path d="" fill="#f1f5f6" transform="translate(0,0)"/>
<path d="" fill="#000100" transform="translate(0,0)"/>
<path d="" fill="#f1f5f6" transform="translate(0,0)"/>
<path d="" fill="#f1f5f6" transform="translate(0,0)"/>
<path d="" fill="#f1f5f6" transform="translate(0,0)"/>
<path d="" fill="#030304" transform="translate(0,0)"/>
<path d="" fill="#f1f5f6" transform="translate(0,0)"/>
<path d="" fill="#f1f5f6" transform="translate(0,0)"/>
<path d="" fill="#f1f5f6" transform="translate(0,0)"/>
<path d="" fill="#f1f5f6" transform="translate(0,0)"/>
<path d="" fill="#f1f5f6" transform="translate(0,0)"/>
<path d="" fill="#f1f5f6" transform="translate(0,0)"/>
<path d="" fill="#f1f5f6" transform="translate(0,0)"/>
<path d="" fill="#f1f5f6" transform="translate(0,0)"/>
<path d="" fill="#f1f5f6" transform="translate(0,0)"/>
<path d="" fill="#f1f5f6" transform="translate(0,0)"/>
<path d="" fill="#010000" transform="translate(0,0)"/>
<path d="" fill="#010302" transform="translate(0,0)"/>
<path d="" fill="#f1f5f6" transform="translate(0,0)"/>
<path d="" fill="#f1f5f6" transform="translate(0,0)"/>
<path d="" fill="#010000" transform="translate(0,0)"/>
<path d="" fill="#f1f5f6" transform="translate(0,0)"/>
<path d="" fill="#f1f5f6" transform="translate(0,0)"/>
<path d="" fill="#f1f5f6" transform="translate(0,0)"/>
<path d="" fill="#f1f5f6" transform="translate(0,0)"/>
<path d="" fill="#010200" transform="translate(0,0)"/>
<path d="" fill="#030201" transform="translate(0,0)"/>
<path d="" fill="#f1f5f6" transform="translate(0,0)"/>
<path d="" fill="#f1f5f6" transform="translate(0,0)"/>
<path d="" fill="#f1f5f6" transform="translate(0,0)"/>
<path d="" fill="#f1f5f6" transform="translate(0,0)"/>
<path d="" fill="#f1f5f6" transform="translate(0,0)"/>
<path d="" fill="#010000" transform="translate(0,0)"/>
<path d="" fill="#020000" transform="translate(0,0)"/>
<path d="" fill="#f1f5f6" transform="translate(0,0)"/>
<path d="" fill="#f1f5f6" transform="translate(0,0)"/>
<path d="" fill="#f1f5f6" transform="translate(0,0)"/>
<path d="" fill="#f1f5f6" transform="translate(0,0)"/>
<path d="" fill="#f1f5f6" transform="translate(0,0)"/>
<path d="" fill="#f1f5f6" transform="translate(0,0)"/>
<path d="" fill="#f1f5f6" transform="translate(0,0)"/>
<path d="" fill="#010000" transform="translate(0,0)"/>
<path d="" fill="#010000" transform="translate(0,0)"/>
<path d="" fill="#f1f5f6" transform="translate(0,0)"/>
<path d="" fill="#010100" transform="translate(0,0)"/>
<path d="" fill="#000100" transform="translate(0,0)"/>
<path d="" fill="#f1f5f6" transform="translate(0,0)"/>
<path d="" fill="#f1f5f6" transform="translate(0,0)"/>
<path d="" fill="#f1f5f6" transform="translate(0,0)"/>
<path d="" fill="#f1f5f6" transform="translate(0,0)"/>
<path d="" fill="#f1f5f6" transform="translate(0,0)"/>
<path d="" fill="#f1f5f6" transform="translate(0,0)"/>
<path d="" fill="#010000" transform="translate(0,0)"/>
<path d="" fill="#040503" transform="translate(0,0)"/>
<path d="" fill="#f1f5f6" transform="translate(0,0)"/>
<path d="" fill="#f1f5f6" transform="translate(0,0)"/>
<path d="" fill="#f1f5f6" transform="translate(0,0)"/>
<path d="" fill="#f1f5f6" transform="translate(0,0)"/>
<path d="" fill="#010000" transform="translate(0,0)"/>
<path d="" fill="#f1f5f6" transform="translate(0,0)"/>
<path d="" fill="#f1f5f6" transform="translate(0,0)"/>
<path d="" fill="#f1f5f6" transform="translate(0,0)"/>
<path d="" fill="#060404" transform="translate(0,0)"/>
<path d="" fill="#000100" transform="translate(0,0)"/>
<path d="" fill="#f1f5f6" transform="translate(0,0)"/>
<path d="" fill="#070405" transform="translate(0,0)"/>
<path d="" fill="#f1f5f6" transform="translate(0,0)"/>
<path d="" fill="#f1f5f6" transform="translate(0,0)"/>
<path d="" fill="#f1f5f6" transform="translate(0,0)"/>
<path d="" fill="#f1f5f6" transform="translate(0,0)"/>
<path d="" fill="#000102" transform="translate(0,0)"/>
<path d="" fill="#f1f5f6" transform="translate(0,0)"/>
<path d="" fill="#f1f5f6" transform="translate(0,0)"/>
<path d="" fill="#f1f5f6" transform="translate(0,0)"/>
<path d="" fill="#010000" transform="translate(0,0)"/>
<path d="" fill="#f1f5f6" transform="translate(0,0)"/>
<path d="" fill="#000100" transform="translate(0,0)"/>
<path d="" fill="#f1f5f6" transform="translate(0,0)"/>
<path d="" fill="#020000" transform="translate(0,0)"/>
<path d="" fill="#f1f5f6" transform="translate(0,0)"/>
<path d="" fill="#f1f5f6" transform="translate(0,0)"/>
<path d="" fill="#f1f5f6" transform="translate(0,0)"/>
<path d="" fill="#f1f5f6" transform="translate(0,0)"/>
<path d="" fill="#f1f5f6" transform="translate(0,0)"/>
<path d="" fill="#f1f5f6" transform="translate(0,0)"/>
<path d="" fill="#f1f5f6" transform="translate(0,0)"/>
<path d="" fill="#f1f5f6" transform="translate(0,0)"/>
<path d="" fill="#f1f5f6" transform="translate(0,0)"/>
<path d="" fill="#f1f5f6" transform="translate(0,0)"/>
<path d="" fill="#f1f5f6" transform="translate(0,0)"/>
<path d="" fill="#000101" transform="translate(0,0)"/>
<path d="" fill="#f1f5f6" transform="translate(0,0)"/>
<path d="" fill="#f1f5f6" transform="translate(0,0)"/>
<path d="" fill="#010000" transform="translate(0,0)"/>
<path d="" fill="#020100" transform="translate(0,0)"/>
<path d="" fill="#f1f5f6" transform="translate(0,0)"/>
<path d="" fill="#f1f5f6" transform="translate(0,0)"/>
<path d="" fill="#f1f5f6" transform="translate(0,0)"/>
<path d="" fill="#010202" transform="translate(0,0)"/>
<path d="" fill="#f1f5f6" transform="translate(0,0)"/>
<path d="" fill="#f1f5f6" transform="translate(0,0)"/>
<path d="" fill="#f1f5f6" transform="translate(0,0)"/>
<path d="" fill="#f1f5f6" transform="translate(0,0)"/>
<path d="" fill="#f1f5f6" transform="translate(0,0)"/>
<path d="" fill="#f1f5f6" transform="translate(0,0)"/>
<path d="" fill="#f1f5f6" transform="translate(0,0)"/>
<path d="" fill="#f1f5f6" transform="translate(0,0)"/>
<path d="" fill="#010000" transform="translate(0,0)"/>
<path d="" fill="#040306" transform="translate(0,0)"/>
<path d="" fill="#f1f5f6" transform="translate(0,0)"/>
<path d="" fill="#f1f5f6" transform="translate(0,0)"/>
<path d="" fill="#010000" transform="translate(0,0)"/>
<path d="" fill="#f1f5f6" transform="translate(0,0)"/>
<path d="" fill="#f1f5f6" transform="translate(0,0)"/>
<path d="" fill="#f1f5f6" transform="translate(0,0)"/>
<path d="" fill="#f1f5f6" transform="translate(0,0)"/>
<path d="" fill="#f1f5f6" transform="translate(0,0)"/>
<path d="" fill="#f1f5f6" transform="translate(0,0)"/>
<path d="" fill="#f1f5f6" transform="translate(0,0)"/>
<path d="" fill="#f1f5f6" transform="translate(0,0)"/>
<path d="" fill="#010000" transform="translate(0,0)"/>
<path d="" fill="#f1f5f6" transform="translate(0,0)"/>
<path d="" fill="#f1f5f6" transform="translate(0,0)"/>
<path d="" fill="#010000" transform="translate(0,0)"/>
<path d="" fill="#f1f5f6" transform="translate(0,0)"/>
<path d="" fill="#f1f5f6" transform="translate(0,0)"/>
<path d="" fill="#010000" transform="translate(0,0)"/>
<path d="" fill="#f1f5f6" transform="translate(0,0)"/>
<path d="" fill="#f1f5f6" transform="translate(0,0)"/>
<path d="" fill="#000001" transform="translate(0,0)"/>
<path d="" fill="#f1f5f6" transform="translate(0,0)"/>
<path d="" fill="#f1f5f6" transform="translate(0,0)"/>
<path d="" fill="#f1f5f6" transform="translate(0,0)"/>
<path d="" fill="#f1f5f6" transform="translate(0,0)"/>
<path d="" fill="#f1f5f6" transform="translate(0,0)"/>
<path d="" fill="#020401" transform="translate(0,0)"/>
<path d="" fill="#020200" transform="translate(0,0)"/>
<path d="" fill="#f1f5f6" transform="translate(0,0)"/>
<path d="" fill="#f1f5f6" transform="translate(0,0)"/>
<path d="" fill="#010602" transform="translate(0,0)"/>
<path d="" fill="#010000" transform="translate(0,0)"/>
<path d="" fill="#f1f5f6" transform="translate(0,0)"/>
<path d="" fill="#010200" transform="translate(0,0)"/>
<path d="" fill="#f1f5f6" transform="translate(0,0)"/>
<path d="" fill="#f1f5f6" transform="translate(0,0)"/>
<path d="" fill="#f1f5f6" transform="translate(0,0)"/>
<path d="" fill="#000100" transform="translate(0,0)"/>
<path d="" fill="#f1f5f6" transform="translate(0,0)"/>
<path d="" fill="#f1f5f6" transform="translate(0,0)"/>
<path d="" fill="#000100" transform="translate(0,0)"/>
<path d="" fill="#000300" transform="translate(0,0)"/>
<path d="" fill="#f1f5f6" transform="translate(0,0)"/>
<path d="" fill="#f1f5f6" transform="translate(0,0)"/>
<path d="" fill="#f1f5f6" transform="translate(0,0)"/>
<path d="" fill="#f1f5f6" transform="translate(0,0)"/>
<path d="" fill="#f1f5f6" transform="translate(0,0)"/>
<path d="" fill="#020100" transform="translate(0,0)"/>
<path d="" fill="#f1f5f6" transform="translate(0,0)"/>
<path d="" fill="#f1f5f6" transform="translate(0,0)"/>
<path d="" fill="#f1f5f6" transform="translate(0,0)"/>
<path d="" fill="#f1f5f6" transform="translate(0,0)"/>
<path d="" fill="#f1f5f6" transform="translate(0,0)"/>
<path d="" fill="#f1f5f6" transform="translate(0,0)"/>
<path d="" fill="#f1f5f6" transform="translate(0,0)"/>
<path d="" fill="#f1f5f6" transform="translate(0,0)"/>
<path d="" fill="#f1f5f6" transform="translate(0,0)"/>
<path d="" fill="#000002" transform="translate(0,0)"/>
<path d="" fill="#f1f5f6" transform="translate(0,0)"/>
<path d="" fill="#f1f5f6" transform="translate(0,0)"/>
<path d="" fill="#010100" transform="translate(0,0)"/>
<path d="" fill="#090A0D" transform="translate(0,0)"/>
<path d="" fill="#f1f5f6" transform="translate(0,0)"/>
<path d="" fill="#f1f5f6" transform="translate(0,0)"/>
<path d="" fill="#f1f5f6" transform="translate(0,0)"/>
<path d="" fill="#f1f5f6" transform="translate(0,0)"/>
<path d="" fill="#f1f5f6" transform="translate(0,0)"/>
<path d="" fill="#f1f5f6" transform="translate(0,0)"/>
<path d="" fill="#f1f5f6" transform="translate(0,0)"/>
<path d="" fill="#f1f5f6" transform="translate(0,0)"/>
<path d="" fill="#010000" transform="translate(0,0)"/>
<path d="" fill="#f1f5f6" transform="translate(0,0)"/>
<path d="" fill="#f1f5f6" transform="translate(0,0)"/>
<path d="" fill="#000200" transform="translate(0,0)"/>
<path d="" fill="#020502" transform="translate(0,0)"/>
<path d="" fill="#070503" transform="translate(0,0)"/>
<path d="" fill="#f1f5f6" transform="translate(0,0)"/>
<path d="" fill="#f1f5f6" transform="translate(0,0)"/>
<path d="" fill="#f1f5f6" transform="translate(0,0)"/>
<path d="" fill="#f1f5f6" transform="translate(0,0)"/>
<path d="" fill="#f1f5f6" transform="translate(0,0)"/>
<path d="" fill="#f1f5f6" transform="translate(0,0)"/>
<path d="" fill="#010000" transform="translate(0,0)"/>
<path d="" fill="#010000" transform="translate(0,0)"/>
<path d="" fill="#010000" transform="translate(0,0)"/>
<path d="" fill="#f1f5f6" transform="translate(0,0)"/>
<path d="" fill="#f1f5f6" transform="translate(0,0)"/>
<path d="" fill="#010000" transform="translate(0,0)"/>
<path d="" fill="#f1f5f6" transform="translate(0,0)"/>
<path d="" fill="#f1f5f6" transform="translate(0,0)"/>
<path d="" fill="#000101" transform="translate(0,0)"/>
<path d="" fill="#f1f5f6" transform="translate(0,0)"/>
<path d="" fill="#000100" transform="translate(0,0)"/>
<path d="" fill="#f1f5f6" transform="translate(0,0)"/>
<path d="" fill="#f1f5f6" transform="translate(0,0)"/>
<path d="" fill="#f1f5f6" transform="translate(0,0)"/>
<path d="" fill="#f1f5f6" transform="translate(0,0)"/>
<path d="" fill="#f1f5f6" transform="translate(0,0)"/>
<path d="" fill="#f1f5f6" transform="translate(0,0)"/>
<path d="" fill="#050403" transform="translate(0,0)"/>
<path d="" fill="#020200" transform="translate(0,0)"/>
<path d="" fill="#f1f5f6" transform="translate(0,0)"/>
<path d="" fill="#f1f5f6" transform="translate(0,0)"/>
<path d="" fill="#2E2E2E" transform="translate(0,0)"/>
<path d="" fill="#2D2C2B" transform="translate(0,0)"/>
<path d="" fill="#f1f5f6" transform="translate(0,0)"/>
<path d="" fill="#f1f5f6" transform="translate(0,0)"/>
<path d="" fill="#010102" transform="translate(0,0)"/>
<path d="" fill="#f1f5f6" transform="translate(0,0)"/>
<path d="" fill="#040405" transform="translate(0,0)"/>
<path d="" fill="#f1f5f6" transform="translate(0,0)"/>
<path d="" fill="#f1f5f6" transform="translate(0,0)"/>
<path d="" fill="#040301" transform="translate(0,0)"/>
<path d="" fill="#f1f5f6" transform="translate(0,0)"/>
<path d="" fill="#f1f5f6" transform="translate(0,0)"/>
<path d="" fill="#000100" transform="translate(0,0)"/>
<path d="" fill="#f1f5f6" transform="translate(0,0)"/>
<path d="" fill="#040302" transform="translate(0,0)"/>
<path d="" fill="#010000" transform="translate(0,0)"/>
<path d="" fill="#000100" transform="translate(0,0)"/>
<path d="" fill="#f1f5f6" transform="translate(0,0)"/>
<path d="" fill="#030302" transform="translate(0,0)"/>
<path d="" fill="#f1f5f6" transform="translate(0,0)"/>
<path d="" fill="#f1f5f6" transform="translate(0,0)"/>
<path d="" fill="#f1f5f6" transform="translate(0,0)"/>
<path d="" fill="#f1f5f6" transform="translate(0,0)"/>
<path d="" fill="#000001" transform="translate(0,0)"/>
<path d="" fill="#000001" transform="translate(0,0)"/>
<path d="" fill="#020102" transform="translate(0,0)"/>
<path d="" fill="#f1f5f6" transform="translate(0,0)"/>
<path d="" fill="#080808" transform="translate(0,0)"/>
<path d="" fill="#070706" transform="translate(0,0)"/>
<path d="" fill="#070506" transform="translate(0,0)"/>
<path d="" fill="#f1f5f6" transform="translate(0,0)"/>
<path d="" fill="#080807" transform="translate(0,0)"/>
<path d="" fill="#0B0B0A" transform="translate(0,0)"/>
<path d="" fill="#080807" transform="translate(0,0)"/>
<path d="" fill="#f1f5f6" transform="translate(0,0)"/>
<path d="" fill="#f1f5f6" transform="translate(0,0)"/>
<path d="" fill="#f1f5f6" transform="translate(0,0)"/>
<path d="" fill="#000100" transform="translate(0,0)"/>
<path d="" fill="#070304" transform="translate(0,0)"/>
<path d="" fill="#f1f5f6" transform="translate(0,0)"/>
<path d="" fill="#000100" transform="translate(0,0)"/>
<path d="" fill="#f1f5f6" transform="translate(0,0)"/>
<path d="" fill="#f1f5f6" transform="translate(0,0)"/>
<path d="" fill="#050104" transform="translate(0,0)"/>
<path d="" fill="#f1f5f6" transform="translate(0,0)"/>
<path d="" fill="#080809" transform="translate(0,0)"/>
<path d="" fill="#090909" transform="translate(0,0)"/>
<path d="" fill="#181B1C" transform="translate(0,0)"/>
<path d="" fill="#1E1E1C" transform="translate(0,0)"/>
<path d="" fill="#0C0C0B" transform="translate(0,0)"/>
<path d="" fill="#0F1110" transform="translate(0,0)"/>
<path d="" fill="#151615" transform="translate(0,0)"/>
<path d="" fill="#141614" transform="translate(0,0)"/>
</svg>
